<?xml version="1.0" encoding="UTF-8"?>
<svg id="Layer_2" data-name="Layer 2" xmlns="http://www.w3.org/2000/svg" viewBox="0 0 1102.15 226.8">
  <defs>
    <style>
      .cls-1 {
        font-size: 15.54px;
      }

      .cls-1, .cls-2, .cls-3, .cls-4, .cls-5, .cls-6, .cls-7, .cls-8, .cls-9, .cls-10, .cls-11, .cls-12, .cls-13, .cls-14, .cls-15, .cls-16, .cls-17, .cls-18, .cls-19 {
        fill: #014326;
        font-family: TimesNewRomanPS-BoldMT, 'Times New Roman';
        font-weight: 700;
      }

      .cls-2 {
        font-size: 15.54px;
      }

      .cls-20 {
        fill: #024126;
      }

      .cls-20, .cls-21, .cls-22, .cls-23, .cls-24, .cls-25, .cls-26, .cls-27, .cls-28, .cls-29, .cls-30 {
        fill-rule: evenodd;
      }

      .cls-31, .cls-32, .cls-23 {
        fill: #fff;
      }

      .cls-31, .cls-28 {
        stroke: #010101;
        stroke-miterlimit: 2.61;
        stroke-width: .5px;
      }

      .cls-21 {
        fill: #fbed22;
      }

      .cls-22 {
        fill: #7297c9;
      }

      .cls-3 {
        font-size: 15.54px;
      }

      .cls-4 {
        font-size: 15.54px;
      }

      .cls-33, .cls-29 {
        fill: #0e4f9f;
      }

      .cls-24 {
        fill: #5b836e;
      }

      .cls-5 {
        font-size: 15.54px;
      }

      .cls-6 {
        font-size: 15.54px;
      }

      .cls-25 {
        fill: #024025;
      }

      .cls-7 {
        font-size: 15.54px;
      }

      .cls-8 {
        font-size: 15.54px;
      }

      .cls-9 {
        font-size: 15.54px;
      }

      .cls-26 {
        fill: #024226;
      }

      .cls-10 {
        font-size: 15.54px;
      }

      .cls-27, .cls-28 {
        fill: #034427;
      }

      .cls-11 {
        font-size: 15.54px;
      }

      .cls-12 {
        font-size: 15.54px;
      }

      .cls-13 {
        font-size: 15.54px;
      }

      .cls-14 {
        font-size: 15.54px;
      }

      .cls-15 {
        font-size: 15.54px;
      }

      .cls-16 {
        font-size: 15.54px;
      }

      .cls-17 {
        font-size: 15.54px;
      }

      .cls-34 {
        fill: #27aae1;
      }

      .cls-18 {
        font-size: 15.54px;
      }

      .cls-19 {
        font-size: 15.54px;
      }

      .cls-30 {
        fill: #95aa45;
      }
    </style>
  </defs>
  <g id="Layer_1-2" data-name="Layer 1">
    <g>
      <g>
        <rect class="cls-34" x="775.13" y="12.34" width="327.02" height="194.77"/>
        <g>
          <path class="cls-32" d="M936.16,78.93c1.16-3.28,3.69-5.93,7.83-5.82,4.44,0,6.86,2.09,7.91,5.82.34.93.63,2.95.52,3.99h-16.78c-.22-.82.3-3.28.52-3.99M958.99,87.29v-3.84c-.11-5.26-1.9-10.33-6.56-12.98-5.59-3.17-13.61-2.54-18.05,1.49-.63.63-1.27,1.27-1.83,1.98-.63.86-1.04,1.49-1.57,2.46-2.76,5.71-2.76,14.13-.22,19.65,1.6,3.47,4.25,6,8.47,7.2,4.21,1.16,9.85.41,13.2-1.38,2.54-1.49,4.55-3.62,5.52-6.27.19-.71.75-2.42.75-3.17-.75-.07-6.45-.07-6.68,0-.11.11-.34,1.49-.41,1.83-.56,1.68-1.19,2.83-2.76,3.8-1.68,1.16-4.96,1.45-7.31.82-4.85-1.38-6.34-6.86-6-11.52.41-.07,23.23-.07,23.46-.07"/>
          <path class="cls-32" d="M857.71,74.27v-4.86h-6.24v33.51h6.34c.11-1.48,0-3.17,0-4.76,0-4.55-.1-9.62,0-14.16.11-2.75.53-5.81,2.01-7.51,1.59-1.8,3.6-3.07,6.24-3.17,2.75-.21,5.18.53,6.77,2.64,1.48,2.01,1.48,5.08,1.48,8.04v18.92h6.34c.1-2.54,0-5.28,0-7.93v-7.93c0-2.64.1-5.28,0-7.93,0-2.33-.74-4.44-1.9-6.03-1.9-2.75-6.13-4.86-11.1-4.65-2.22,0-4.55.85-6.03,1.8-.43.32-.85.53-1.16.85-.85.74-1.8,1.69-2.33,2.64-.1.21-.21.63-.42.53"/>
          <path class="cls-32" d="M838.79,97.95v4.97h6.24v-33.51h-6.34v14.27c0,1.48,0,3.07-.11,4.65-.1,2.64-.63,5.81-1.9,7.61-2.11,3.07-6.77,4.23-10.15,2.75-3.81-1.69-4.02-6.34-4.02-10.25,0-.43.1-18.61,0-19.03h-6.24c-.21.42-.1,7.19-.1,7.82v11.84c0,3.7-.11,6.77,1.9,9.94,1.9,3.17,5.39,5.28,10.78,4.86,3.28-.32,6.03-1.59,8.14-3.7.43-.42.95-1.16,1.38-1.69.1-.11.21-.43.42-.53"/>
          <path class="cls-32" d="M926.11,91.71h-6.34c-.21,2.85-1.16,4.97-2.75,6.13-1.8,1.38-4.55,1.8-7.19.95-4.23-1.59-5.39-6.77-5.5-12.37-.11-7.29,1.8-13.64,8.88-13.32,3.27.1,5.28,2.11,6.02,5.08.11.74.11,1.27.32,1.9l6.24.1c.1-.85-.32-2.43-.53-3.17-1.8-6.87-9.2-9.83-16.17-8.03-8.25,2.01-11.42,9.51-11.42,17.44,0,9.09,3.7,15.75,11.73,17.13,4.44.74,8.78-.21,11.63-2.33,2.96-2.22,4.86-5.71,5.08-9.51"/>
          <path class="cls-32" d="M966.18,69.4h-5.71v4.44h5.71v28.96h6.34v-28.96h7.61c.1-.21.1-4.12,0-4.44h-7.61v-4.76c0-1.59-.21-3.17.63-4.33,1.06-1.48,3.7-1.59,5.71-1.48.63,0,1.59.11,2.22.11v-2.54c0-.53.1-2.32,0-2.64-.53-.21-2.75-.53-3.38-.63-1.16-.11-2.64,0-3.7.21-4.65.74-7.4,3.49-7.82,8.25-.1,1.59.1,7.19,0,7.82"/>
          <polygon class="cls-32" points="886.57 102.7 886.57 102.92 892.92 102.92 892.92 69.4 892.7 69.4 886.57 69.4 886.57 102.7"/>
          <path class="cls-32" d="M885.94,61.58h3.81c.74,0,3.27.1,3.8-.1v-6.77h-7.51l-.1,6.87Z"/>
          <path class="cls-32" d="M1041.97,89.71c-.41.41-2.09,2.09-2.65,2.31-1.45-.75-2.54-1.79-2.83-3.47-.45-2.24.63-1.72,1.16-1.72.86,0,1.9-.11,2.65-.41,1.68-.75,3.69-2.35,4.74-3.8,1.83-2.98,1.9-7.2.34-10.03-2.01-3.73-6.68-6.79-11-5.18-2.95,1.16-3.39,2.83-4.74,3.69-2.35,1.38-4.89-.22-3.8,2.2.41,1.08-.22.86-.75.97-.22.52.11,1.04-.11,1.38-.22.3-.75.19-.97.52-.19.3.11.75-.07,1.16-.11.22-.22.22-.34.41-.11.11-.22.22-.34.45-.41.93-.07,1.57.45,2.09.86.97,2.31,1.6,2.95,2.76.45.86.34,1.49.45,2.54.07,1.16.52,1.72.52,2.35.11,1.04-.34,1.68-.97,1.98-.41.11-.82.11-1.27.22-2.95.34-5.71,1.9-7.83,2.42-.71.11-3.06.45-3.8-.11l-1.57-1.34c-.41-.34-.52-.34-.52-.97.11-.63.52-1.79.82-2.13.63.45.97.63,1.83.75,1.34.22,3.06-.11,4.44-.41.82-.11,1.34-.41,2.09-.11,1.79.52,2.76,0,3.39-1.27.22-.41.52-1.49.34-2.01-.34-1.16-1.94.34-1.6-.52v-.41c-.75-.34-1.6.19-2.13.63-.11.07-.3.3-.52.41-.22.11-1.16-.22-1.57-.22-.63,0-1.19,0-1.72-.11-.63-.07-1.04-.3-1.38-.63-.19-.19-.19-.3-.19-.71-.11-1.72-.52-4.03-.86-5.71l-.3-1.6c-.11-.52.3-.93.82-1.04,1.49-.34,3.17,1.27,4.44-.22.11-.22.34-.41.45-.52.3-.11.63.11.63-.34.07-.63,0-.19.3-.63.34-.07.11-.41.22-.71.63-.56.93-.22.52-1.38-.41-1.49,1.68-2.35,1.68-5,.11-2.54-2.2-4.33-3.69-5.15-2.01-1.27-4.66-1.9-7.09-.63-3.58,1.79-3.92,5.26-2.95,8.88.63,2.31-1.38,2.65-2.87,3.69l-1.9,1.49c-.11-1.08.22-2.76.45-3.73.52-3.17,1.98-6.12,3.69-8.54.52-.63.93-1.16,1.49-1.72.07-.19.19-.3.41-.52,1.38-1.38,2.83-2.54,4.66-3.58.41-.22,2.31-1.27,2.72-1.27l1.08,1.16c-.45.3-.97.75-1.38,1.16-.45.41-.97.75-1.38,1.16.3.11.86.22,1.04.34.11-.11,1.08-.97,1.27-1.08.22-.19.97-.82,1.27-.93.63.3,1.27.93,2.01,1.16-.11.22-.52.97-.75,1.27-.11.22-.52.97-.63,1.27.34.11.52.34.75.45.22-.22.52-.97.75-1.27.3-.56.52-.97.75-1.38.3.11.93.3,1.27.3.52.11,1.04.11,1.49.22.07.75.07,3.06,0,3.69l-2.76-.11c.19.22.41.63.63.97l2.13.11c.19.82-.11,5.26.07,6.64h.86v-1.57c1.04,0,2.01-.11,3.06-.11.75-.11.75,0,1.27-.45.22-.19.52-.41.75-.71,0,0-4.44.3-5.07.41l.11-4.21c.86-.11,1.68-.11,2.54-.34l2.42-.41,1.27,3.8.86-.34c-.11-.82-1.08-2.83-1.27-3.8,1.79-.52,3.69-1.57,3.99-1.57.22.11.34.19.45.41l1.04,1.49c.34.52.97,1.57,1.16,2.09-.19.22-1.45.63-1.79.75.34.11.86.11,1.16.22.86.22.45.11,1.08-.11.11.22.11.34.19.52q.11.11.34.22c.3.11.75.22.86.3,0-.19-.45-1.04-.56-1.45.22-.22.63-.34.97-.45l2.76-1.68.07.11q0,.11.11.11c2.98,4.74,4.03,10.67,2.76,16.15-.97,3.92-2.65,7.31-5.3,10.07M1023.81,53.65c-.22.22-2.98,1.49-3.62,2.13-.11-.11-.82-.86-.93-1.08.63-.3,3.69-.93,4.55-1.04M1023.17,56.52c-.11.19-.34.63-.56.71-.3-.07-1.34-.71-1.57-.93l.86-.52c.52-.34,2.42-1.38,2.83-1.38-.52.63-1.04,1.38-1.57,2.13M1025.82,54.5v3.47c-.56,0-1.83-.19-2.24-.41.22-.52,1.9-2.76,2.24-3.06M1026.75,58.94c1.9-.11,1.9-.34,2.87-.52.3.41,1.68,3.17,1.79,3.58-.75.34-3.69.52-4.66.63v-3.69ZM1026.75,54.5c.52.41,2.01,2.54,2.31,3.06-.41.3-1.68.41-2.31.41v-3.47ZM1030.78,55.77c.19.11.75.41.82.52-.3.3-1.16.86-1.57.93-.22-.19-.41-.41-.52-.71l-1.6-2.24c.63.22,2.24,1.04,2.87,1.49M1033.43,54.69c-.22.45-.63.63-.97,1.08l-3.58-2.13c1.04.11,3.69.75,4.55,1.04M1036.04,60.1c-.19.34-3.06,1.49-3.69,1.6-.19-.22-.3-.63-.41-.97-.52-1.04-.97-1.68-1.49-2.65.11-.11.86-.41,1.08-.52l.93-.63c.52.22,2.31,1.79,2.87,2.31.3.45.52.63.71.86M1034.36,55.14c1.04.19,4.44,2.2,4.96,2.83-.3.34-1.9,1.49-2.42,1.72-.3-.34-.52-.63-.86-.97l-1.79-1.68c-.3-.11-.82-.63-.93-.86.3-.22.75-.75,1.04-1.04M1040.18,58.53c.11.19.34.3.52.52.75.63,2.87,2.95,3.06,3.47-.3.11-.52.34-.82.52-.52.34-2.35,1.38-2.76,1.49-.3-.41-.75-1.49-1.27-2.13l-1.38-1.98c.45-.34.97-.63,1.38-.97.22-.11,1.04-.86,1.27-.93M1046.93,66.33c-1.34-3.47-4.21-6.97-7.16-9.29-6.34-4.55-11.64-4.14-12.27-4.44h-1.9c-.22.11-2.01.19-2.42.19-3.62.56-7.09,2.01-9.85,4.03-5.3,3.69-9.51,10.37-9.4,18.39.19,12.08,9.51,21.89,22.08,22.23,3.28,0,6.68-.75,9.21-1.9,2.31-1.08,4.1-2.13,5.93-3.8q.19-.11.41-.34c.11-.11.22-.22.3-.3,3.39-3.17,6.68-8.58,6.9-15.33,0-3.62-.56-6.38-1.83-9.44"/>
          <path class="cls-32" d="M1019.25,109.57h0c.42-.74,2.75-2.96,3.28-3.49.63-.53,1.16-.95,1.8-1.48.21-.21,1.79-1.27,2.01-1.27s1.8,1.06,2.01,1.27c.74.53,1.27.95,1.9,1.48.53.53,2.85,2.75,3.17,3.49h.11c.21-.21.53-.21.74-.42.21-.21.43-.32.53-.53-.1-.21-.53-.74-.74-.95-1.48-1.59-2.44-2.54-4.34-3.81l-2.01-1.27c.32-.32,3.07-1.06,3.8-1.06.21.32.95.84,1.27,1.06.43.32.95.53,1.59.74,2.54.63,5.92.32,8.35-.43.74-.21,2.85-.85,3.38-1.16-.42-.32-3.91-.95-4.65-1.06-1.8-.32-3.49-.43-5.29-.53-1.69,0-3.7.21-5.28.53-.85.1-1.59.32-2.32.53-3.17.95-1.16.95-4.34,0-.74-.21-1.48-.43-2.32-.53-3.38-.63-7.19-.63-10.68,0-.74.1-4.12.74-4.55,1.06.53.43,2.64,1.06,3.38,1.27,1.37.32,2.64.53,4.02.63,1.48.1,2.96,0,4.33-.32,1.8-.53,2.75-1.69,2.86-1.8.63,0,3.49.74,3.7,1.06l-2.01,1.27c-.63.53-1.16.95-1.8,1.38-.63.53-2.75,2.54-3.17,3.38.21.42.63.63,1.27.95"/>
          <path class="cls-32" d="M1042.4,99.85c2.85.42,5.08.32,7.51-1.38,1.48-1.06,2.43-2.32,3.38-3.8.21-.32.84-1.16.95-1.48-2.11.21-5.08,1.8-6.56,2.64-1.48.85-4.86,2.85-5.28,4.02"/>
          <path class="cls-32" d="M1007.94,100.17c1.06,0,1.48-.1,2.43-.32-.42-1.16-3.8-3.17-5.28-4.02-1.06-.63-5.18-2.75-6.56-2.64.53.85.95,1.69,1.59,2.43,1.8,2.43,4.23,4.55,7.82,4.55"/>
          <path class="cls-32" d="M1036.59,99.43c2.85.42,4.97-.53,6.24-2.11.43-.53.53-.63.85-1.27.63-1.06,1.48-4.02,1.38-4.97-.74.42-.43.21-1.27.74-.43.32-.74.63-1.16.95-.74.63-2.64,2.33-3.38,3.07l-1.06,1.06c-.32.32-1.69,1.69-1.58,2.54"/>
          <path class="cls-32" d="M1016.18,99.43c.1-.74-1.27-2.22-1.59-2.54-.32-.32-.74-.74-1.06-1.06l-1.69-1.48c-.85-.84-3.28-3.07-4.23-3.27.21,2.11,1.06,4.76,2.32,6.24,1.38,1.8,3.17,2.33,6.24,2.11"/>
          <path class="cls-32" d="M1003.5,93.93c-.32-1.69-3.38-5.6-4.76-7.08-.95-.95-1.9-1.9-2.96-2.75-.32-.32-1.06-.74-1.48-.95,0,.95.85,2.96,1.27,3.7,1.48,2.96,4.23,6.24,7.93,7.08"/>
          <path class="cls-32" d="M1049.27,93.93c1.16-.21,2.64-1.06,3.38-1.59,1.06-.74,1.8-1.48,2.54-2.43,1.27-1.59,2.86-4.12,3.28-6.77-1.06.32-3.38,2.54-4.12,3.38-1.16,1.37-2.33,2.64-3.39,4.12-.42.74-1.48,2.33-1.69,3.28"/>
          <path class="cls-32" d="M1007.2,95.62c.74-1.59-1.8-10.26-3.49-11.84-.32.43-.74,2.75-.74,3.49-.32,2.96.63,5.71,2.96,7.5.21.21.95.74,1.27.85"/>
          <path class="cls-32" d="M1045.47,95.62c.32-.1,1.06-.63,1.27-.85,3.17-2.43,3.7-6.45,2.54-10.15l-.21-.74v-.11c-1.06.95-2.01,3.7-2.43,5.29-.63,1.69-1.48,4.65-1.16,6.55"/>
          <path class="cls-32" d="M993.66,73.21c-.21.95-.1,2.85,0,3.91.42,2.85,1.48,5.28,3.6,7.08.32.1.95.74,1.27.85,0-2.64-1.9-7.19-3.17-9.41-.32-.74-.74-1.37-1.27-2.01l-.42-.42Z"/>
          <path class="cls-32" d="M1054.13,85.05c.63-.32,1.69-1.27,2.11-1.59,2.22-2.33,3.07-5.5,2.96-8.88l-.11-1.48c-.42.32-1.48,2.11-1.69,2.54-1.27,2.22-3.28,6.77-3.28,9.41"/>
          <path class="cls-32" d="M999.58,83.46c0,1.06.1,2.01.53,2.85.21.63.74,1.8,1.16,2.11.11-.1.32-.53.43-.63.74-1.8.95-5.6.95-7.4,0-1.48-.21-2.33-.53-3.6-.42.21-1.48,2.22-1.69,2.86-.53,1.06-.85,2.54-.85,3.8"/>
          <path class="cls-32" d="M1051.49,88.43c.42-.42,1.06-1.8,1.37-2.54.64-2.33.32-4.55-.74-6.66-.1-.32-1.16-2.22-1.48-2.54-.1.53-.32.84-.32,1.37-.1.53-.21,1.06-.21,1.59,0,1.9.21,6.45,1.06,8.25,0,.11,0,.21.1.32l.21.21Z"/>
          <path class="cls-32" d="M997.05,76.27c.21-.63.32-2.33.32-3.07.1-2.11-.1-4.44-.53-6.56-.21-.63-.53-2.11-.85-2.64-1.27,2.64-1.79,6.98-.53,9.94.21.63,1.16,2.11,1.59,2.33"/>
          <path class="cls-32" d="M1055.72,76.27c.42-.21,1.27-1.69,1.48-2.33,1.16-2.54.85-5.81.1-8.45,0-.21-.42-1.27-.53-1.48-.74,1.8-1.16,3.7-1.27,5.81-.1,1.37-.32,5.28.21,6.45"/>
          <path class="cls-32" d="M1054.24,80.82c.1-.42.32-.95.42-1.48.64-3.07-.95-6.13-2.96-8.25-.11-.1-.85-.95-.95-.85-.21,2.43.95,6.13,2.11,8.35.21.53,1.06,2.01,1.37,2.22"/>
          <path class="cls-32" d="M998.63,80.82c.42-.74.63-.85,1.16-2.01.95-2.01,2.22-5.71,2.22-7.82v-.85c-.32.1-1.59,1.59-1.9,2.01-1.8,2.32-2.75,4.97-1.8,7.93,0,.1,0,.32.1.42l.11.21c0,.1,0,0,.1.1"/>
          <path class="cls-32" d="M998.42,71.09v1.16c.42-.1,1.58-1.38,1.9-1.8,1.38-1.69,3.38-4.97,3.81-7.19-.74.21-2.33,1.48-2.96,2.01-.21.21-.32.32-.42.42-.21.21-.32.32-.43.53-.95.95-2.01,2.85-1.9,4.86"/>
          <path class="cls-32" d="M1054.24,72.26c.1-2.33,0-3.91-1.48-5.81-.74-1.06-1.8-1.9-2.85-2.64-.21-.21-.85-.63-1.16-.74.42,2.22,2.33,5.6,3.7,7.29.43.53,1.27,1.59,1.8,1.9"/>
          <path class="cls-32" d="M1054.87,67.29c.63-2.11-.21-3.91-1.06-5.39-.53-.84-1.59-2.11-2.43-2.85-.11-.1-.74-.63-.85-.74.1,2.11,1.37,5.5,2.64,7.29.32.53,1.16,1.48,1.69,1.69"/>
          <path class="cls-32" d="M997.89,67.29c.42-.1,1.27-1.27,1.69-1.69,1.27-1.8,2.54-4.97,2.64-7.29-.32.1-1.58,1.37-1.8,1.69-1.06,1.27-2.11,2.54-2.54,4.23-.32,1.38-.21,1.9,0,3.07"/>
          <rect class="cls-32" x="812.36" y="124.69" width="250.65" height="1.06"/>
          <path class="cls-32" d="M1057.31,159.58c0-1.06-.21-2.01-.42-2.96-.21-.95-.63-1.8-1.16-2.54-.53-.74-1.16-1.37-2.01-1.8-.74-.42-1.8-.74-2.96-.74s-2.11.32-2.86.74c-.85.53-1.48,1.16-1.9,1.91-.42.74-.85,1.69-.95,2.64-.21.95-.32,1.91-.32,2.86s0,1.9.21,2.96c.1,1.06.42,2.01.84,2.86.43.84,1.06,1.59,1.8,2.22.74.53,1.69.85,2.86.85,1.27,0,2.32-.32,3.27-.74.85-.53,1.59-1.27,2.11-2.01.53-.85.85-1.8,1.06-2.86.32-1.16.42-2.22.42-3.38M1057.31,167.19v-.21c-.85,1.27-1.9,2.22-3.07,2.85-1.16.63-2.43.95-3.91.95s-2.75-.32-3.8-.95c-1.06-.63-1.91-1.48-2.54-2.54-.74-1.06-1.16-2.22-1.48-3.49-.32-1.27-.43-2.54-.43-3.8,0-1.38.11-2.64.43-3.91.32-1.27.74-2.33,1.48-3.38.63-.95,1.48-1.8,2.54-2.43,1.06-.63,2.32-.85,3.8-.85,1.38,0,2.64.32,4.02.85,1.27.63,2.22,1.59,2.96,2.75v-11.84h2.43v24.42c0,.74,0,1.59.1,2.33,0,.74.11,1.48.11,2.22h-2.43l-.21-2.96ZM1037.01,170.15h-2.43v-28.97h2.43v28.97ZM1028.02,170.15h-2.33v-20.19h2.33v20.19ZM1028.23,144.15h-2.75v-2.96h2.75v2.96ZM1005.72,153.03h0c.74-1.27,1.59-2.22,2.75-2.75,1.06-.63,2.33-.85,3.6-.85,1.06,0,2.01.1,2.85.42.74.21,1.38.64,1.9,1.16.53.43.95.95,1.27,1.59.31.53.53,1.16.74,1.8.1.63.21,1.16.32,1.69v14.06h-2.33v-13c0-1.8-.53-3.17-1.48-4.12-.95-.95-2.22-1.48-3.91-1.48-.95,0-1.8.21-2.54.63-.74.42-1.27.85-1.79,1.59-.53.63-.85,1.38-1.06,2.11-.21.85-.32,1.8-.32,2.64v11.63h-2.43v-28.97h2.43v11.84ZM997.89,156.2c-.1-1.59-.63-2.75-1.59-3.49-.85-.74-2.22-1.16-3.91-1.16-.95,0-1.8.32-2.54.74-.63.43-1.27,1.06-1.8,1.8-.53.74-.95,1.69-1.16,2.64-.32,1.06-.42,2.11-.42,3.28s.1,2.22.42,3.27c.21,1.06.63,2.01,1.16,2.75.53.74,1.16,1.38,1.8,1.8.74.53,1.59.74,2.54.74,1.59,0,2.86-.43,3.91-1.38.95-.85,1.48-1.9,1.59-3.38h2.64c-.63,4.65-3.28,6.98-7.82,6.98-1.58,0-2.85-.32-4.02-.95-1.06-.63-2.01-1.38-2.75-2.33-.63-1.06-1.27-2.22-1.59-3.49-.32-1.27-.53-2.54-.53-3.91s.21-2.75.53-4.02c.42-1.27.95-2.43,1.69-3.38.74-1.06,1.69-1.8,2.85-2.43,1.06-.63,2.43-.85,3.91-.85,1.06,0,2.01.1,2.96.42.85.32,1.69.74,2.43,1.27.63.63,1.16,1.37,1.59,2.22.42.85.74,1.8.74,2.85h-2.64ZM954.02,149.96l6.77,16.91,6.77-16.91h2.54l-11.1,27.91h-2.64l3.07-7.72-8.35-20.19h2.96ZM941.33,170.15h-2.43v-15.65c.1-.74.1-1.59,0-2.33,0-.74-.1-1.48-.1-2.22h2.43l.1,2.96h.1c.43-.95.95-1.8,1.8-2.43.85-.74,1.69-1.06,2.75-1.06.43-.1.85-.1,1.16-.1.42,0,.85.1,1.27.1v2.33c-.32,0-.53-.11-.74-.11-.32,0-.53-.1-.74-.1-1.8,0-3.17.63-4.12,1.8-.95,1.16-1.38,2.75-1.48,4.65v12.16ZM917.97,160.64c.11,1.06.21,2.11.53,3.07.21.95.63,1.8,1.16,2.54.63.74,1.27,1.27,2.22,1.69.85.42,1.9.63,3.17.63.63,0,1.37-.11,2.01-.43.63-.21,1.16-.53,1.69-.95.53-.42.95-.95,1.27-1.59.42-.53.63-1.16.85-1.9h2.54c-.63,2.43-1.69,4.23-3.28,5.39-1.48,1.06-3.49,1.69-5.92,1.69-1.48,0-2.75-.32-3.91-.95-1.06-.63-2.01-1.38-2.75-2.33-.74-1.06-1.27-2.22-1.59-3.49-.43-1.27-.53-2.54-.53-3.91s.21-2.75.53-4.02c.42-1.27.95-2.43,1.69-3.38.74-1.06,1.69-1.8,2.86-2.43,1.06-.63,2.43-.85,3.91-.85,1.69,0,3.07.21,4.23.85,1.16.53,2.11,1.37,2.86,2.32.74,1.06,1.27,2.22,1.58,3.6.32,1.38.53,2.86.53,4.44h-15.65ZM930.97,158.42c-.1-.95-.21-1.91-.53-2.75-.32-.85-.74-1.48-1.27-2.11-.53-.63-1.16-1.06-2.01-1.48-.74-.32-1.69-.53-2.75-.53-.95,0-1.8.21-2.54.63-.85.32-1.48.85-2.01,1.48-.43.63-.85,1.37-1.16,2.22-.32.85-.53,1.69-.63,2.54h12.9ZM897.36,149.96l6.87,16.81,6.77-16.81h2.64l-8.03,20.19h-2.64l-8.25-20.19h2.64ZM877.17,160.64c.1,1.06.21,2.11.53,3.07.21.95.64,1.8,1.16,2.54.63.74,1.27,1.27,2.22,1.69.84.42,1.9.63,3.06.63.74,0,1.48-.11,2.12-.43.63-.21,1.16-.53,1.69-.95.53-.42.95-.95,1.27-1.59.42-.53.63-1.16.85-1.9h2.43c-.53,2.43-1.59,4.23-3.17,5.39-1.48,1.06-3.49,1.69-5.92,1.69-1.48,0-2.75-.32-3.91-.95-1.06-.63-2.01-1.38-2.75-2.33-.74-1.06-1.27-2.22-1.59-3.49-.42-1.27-.53-2.54-.53-3.91s.11-2.75.53-4.02c.32-1.27.95-2.43,1.69-3.38.74-1.06,1.69-1.8,2.85-2.43,1.06-.63,2.43-.85,3.91-.85,1.69,0,3.07.21,4.23.85,1.16.53,2.11,1.37,2.85,2.32.74,1.06,1.27,2.22,1.58,3.6.32,1.38.53,2.86.53,4.44h-15.65ZM890.17,158.42c-.1-.95-.21-1.91-.53-2.75-.32-.85-.74-1.48-1.27-2.11-.53-.63-1.16-1.06-2.01-1.48-.74-.32-1.69-.53-2.75-.53-.95,0-1.8.21-2.64.63-.74.32-1.37.85-1.9,1.48s-.85,1.37-1.16,2.22c-.32.85-.53,1.69-.63,2.54h12.9ZM853.7,170.15h-2.43v-15.65c0-.74,0-1.59-.11-2.33,0-.74-.1-1.48-.1-2.22h2.43l.21,2.96c.42-.95,1.06-1.8,1.8-2.43.84-.74,1.8-1.06,2.75-1.06.42-.1.84-.1,1.27-.1s.74.1,1.16.1v2.33c-.21,0-.43-.11-.74-.11-.21,0-.53-.1-.74-.1-1.8,0-3.17.63-4.12,1.8-.85,1.16-1.37,2.75-1.37,4.65v12.16ZM843.65,160.11c0-.95-.1-1.9-.43-2.96-.21-.95-.63-1.9-1.16-2.75-.53-.84-1.27-1.48-2.11-2.01-.85-.53-1.9-.85-3.07-.85-1.27,0-2.22.32-3.17.85-.84.53-1.59,1.16-2.11,2.01-.53.85-.84,1.8-1.16,2.75-.21,1.06-.31,2.01-.31,2.96,0,.85.1,1.9.31,2.85.32,1.06.64,1.91,1.16,2.75.53.85,1.27,1.48,2.11,2.01.95.53,1.91.85,3.17.85,1.16,0,2.22-.32,3.07-.85.85-.53,1.59-1.16,2.11-2.01.53-.84.95-1.69,1.16-2.75.32-.95.43-2.01.43-2.85M836.89,149.43c1.59,0,2.96.21,4.12.85,1.16.63,2.22,1.48,2.96,2.43.74,1.06,1.37,2.22,1.69,3.49.43,1.27.64,2.54.64,3.91,0,1.27-.21,2.64-.64,3.91-.32,1.27-.95,2.32-1.69,3.38-.74.95-1.8,1.8-2.96,2.43-1.16.63-2.54.95-4.12.95s-3.07-.32-4.23-.95c-1.16-.63-2.11-1.48-2.85-2.43-.85-1.06-1.38-2.11-1.8-3.38-.32-1.27-.53-2.64-.53-3.91,0-1.37.21-2.64.53-3.91.42-1.27.95-2.43,1.8-3.49.74-.95,1.69-1.8,2.85-2.43,1.16-.63,2.64-.85,4.23-.85M818.07,170.15v-17.97h-4.02v-2.22h4.02v-4.23c0-1.8.32-3.07,1.16-3.91.74-.74,1.9-1.16,3.7-1.16.32,0,.74.11,1.16.21.32.1.74.1,1.16.21v1.9c-.32,0-.53,0-.74-.1h-.85c-.74,0-1.37.1-1.9.32-.42.21-.74.42-.95.84-.21.43-.32.85-.32,1.48-.1.53-.1,1.16,0,1.9v2.54h4.55v2.22h-4.55v17.97h-2.43Z"/>
        </g>
      </g>
      <g>
        <path class="cls-28" d="M495.16.25c56.19,0,101.74,45.55,101.74,101.74s-45.55,101.74-101.74,101.74-101.74-45.55-101.74-101.74S438.97.25,495.16.25h0ZM495.16,6.18c-52.92,0-95.81,42.9-95.81,95.81s42.9,95.81,95.81,95.81,95.81-42.9,95.81-95.81S548.08,6.18,495.16,6.18Z"/>
        <circle class="cls-31" cx="495.16" cy="101.99" r="95.81"/>
        <text class="cls-3" transform="translate(421.84 119.35) rotate(-100.1)"><tspan x="0" y="0">S</tspan></text>
        <text class="cls-12" transform="translate(420.22 111.26) rotate(-91.4)"><tspan x="0" y="0">C</tspan></text>
        <text class="cls-4" transform="translate(419.77 100.23) rotate(-82.7)"><tspan x="0" y="0">H</tspan></text>
        <text class="cls-10" transform="translate(421.27 88.58) rotate(-74.1)"><tspan x="0" y="0">O</tspan></text>
        <text class="cls-16" transform="translate(424.48 77.23) rotate(-65.6)"><tspan x="0" y="0">O</tspan></text>
        <text class="cls-15" transform="translate(429.41 66.51) rotate(-57.3)"><tspan x="0" y="0">L</tspan></text>
        <text class="cls-7" transform="translate(436.72 55.63) rotate(-46.3)"><tspan x="0" y="0">E</tspan></text>
        <text class="cls-14" transform="translate(443.49 48.33) rotate(-38.1)"><tspan x="0" y="0">D</tspan></text>
        <text class="cls-17" transform="translate(452.06 41.49) rotate(-29.8)"><tspan x="0" y="0">U</tspan></text>
        <text class="cls-1" transform="translate(461.4 35.9) rotate(-21.5)"><tspan x="0" y="0">C</tspan></text>
        <text class="cls-13" transform="translate(471.52 31.7) rotate(-12.9)"><tspan x="0" y="0">A</tspan></text>
        <text class="cls-8" transform="translate(480.95 29.37) rotate(-7.2)"><tspan x="0" y="0">T</tspan></text>
        <text class="cls-12" transform="translate(490.99 28.28) rotate(-1.4)"><tspan x="0" y="0">I</tspan></text>
        <text class="cls-4" transform="translate(496.71 27.81) rotate(7.3)"><tspan x="0" y="0">O</tspan></text>
        <text class="cls-10" transform="translate(508.46 29.06) rotate(15.9)"><tspan x="0" y="0">N</tspan></text>
        <text class="cls-2" transform="translate(522.62 33.1) rotate(27.2)"><tspan x="0" y="0">D</tspan></text>
        <text class="cls-15" transform="translate(532.43 38.07) rotate(32.7)"><tspan x="0" y="0">E</tspan></text>
        <text class="cls-9" transform="translate(540.76 43.67) rotate(41)"><tspan x="0" y="0">P</tspan></text>
        <text class="cls-5" transform="translate(546.9 48.8) rotate(49.1)"><tspan x="0" y="0">A</tspan></text>
        <text class="cls-19" transform="translate(554.22 56.88) rotate(57.4)"><tspan x="0" y="0">R</tspan></text>
        <text class="cls-11" transform="translate(559.91 65.58) rotate(62.9)"><tspan x="0" y="0">T</tspan></text>
        <text class="cls-6" transform="translate(564.66 74.44) rotate(74.2)"><tspan x="0" y="0">M</tspan></text>
        <text class="cls-8" transform="translate(568.59 88.26) rotate(82.8)"><tspan x="0" y="0">E</tspan></text>
        <text class="cls-18" transform="translate(569.92 98.21) rotate(91.5)"><tspan x="0" y="0">N</tspan></text>
        <text class="cls-4" transform="translate(569.63 109.25) rotate(97.3)"><tspan x="0" y="0">T</tspan></text>
        <path class="cls-27" d="M434.47,147.6l-3.05,1.94-.14-.22c.65-.81,1.01-1.65,1.07-2.49.07-.85-.11-1.61-.55-2.29-.41-.65-.94-1.08-1.58-1.28s-1.34-.18-2.11.05c-.77.24-1.49.57-2.18,1.01-.83.53-1.5,1.09-2,1.68-.5.6-.76,1.2-.78,1.83s.17,1.24.55,1.84c.13.21.29.41.48.6.18.19.39.38.62.55l1.8-1.14c.35-.22.56-.39.63-.5.07-.11.1-.27.09-.47-.01-.2-.08-.4-.21-.61l-.14-.22.22-.14,2.69,4.22-.22.14c-.23-.31-.41-.5-.56-.59-.15-.08-.32-.11-.52-.08-.11.01-.32.12-.64.33l-1.8,1.14c-.6-.4-1.15-.86-1.66-1.37-.51-.52-.97-1.1-1.38-1.75-.52-.82-.85-1.58-.97-2.26-.12-.69-.13-1.35-.03-2,.1-.65.3-1.23.61-1.76.4-.67.96-1.24,1.69-1.71,1.31-.83,2.7-1.07,4.18-.73,1.49.35,2.67,1.22,3.56,2.61.28.43.49.84.64,1.23.08.21.18.58.29,1.1.11.52.19.82.24.9.08.12.19.2.34.25.15.05.38.04.68-.04l.14.22Z"/>
        <path class="cls-27" d="M437.95,151.83c1.12,1.2,1.64,2.52,1.55,3.96-.09,1.44-.71,2.66-1.87,3.67-.98.86-2.1,1.32-3.35,1.4-1.66.1-3.09-.55-4.3-1.94-1.22-1.4-1.69-2.89-1.41-4.48.22-1.25.84-2.33,1.87-3.22,1.15-1,2.45-1.45,3.9-1.33,1.45.12,2.65.77,3.61,1.95h0ZM437.64,152.21c-.62-.71-1.45-.94-2.5-.68-.86.21-1.84.81-2.96,1.78-1.32,1.15-2.1,2.24-2.32,3.26-.16.71.02,1.36.53,1.94.34.39.73.64,1.15.74.54.12,1.16.05,1.86-.23.7-.28,1.48-.79,2.34-1.54,1.03-.89,1.71-1.66,2.05-2.29.34-.64.49-1.19.44-1.67-.05-.48-.24-.91-.58-1.3Z"/>
        <path class="cls-27" d="M448.97,162.64l-.17.2c-.32-.2-.71-.27-1.15-.2-.33.05-.96.3-1.89.73l-7.83,3.63-.19-.16,2.73-8.49c.33-1.03.5-1.65.5-1.88,0-.23-.13-.49-.4-.78l.17-.2,3.71,3.22-.17.2-.13-.11c-.34-.29-.6-.45-.8-.47-.14-.02-.25.03-.35.14-.06.07-.12.16-.17.29-.05.12-.17.47-.35,1.03l-1.7,5.3,4.52-2.11c.55-.26.91-.44,1.08-.55.17-.11.29-.21.38-.31.1-.12.16-.24.17-.39.01-.14-.01-.29-.09-.44-.11-.21-.3-.43-.57-.67l.17-.2,2.54,2.21Z"/>
        <path class="cls-27" d="M456.08,167.62l-1.62,2.26-.22-.15c.24-.62.36-1.1.36-1.44,0-.34-.09-.68-.27-1.02-.1-.19-.35-.42-.74-.7l-.63-.45-4.62,6.48c-.31.43-.48.72-.51.86-.03.14,0,.3.07.48.08.18.24.35.47.52l.27.2-.15.22-4.36-3.11.15-.22.28.2c.24.17.47.27.68.28.15.02.3-.02.46-.12.12-.07.32-.31.63-.74l4.62-6.48-.61-.43c-.56-.4-1.05-.57-1.48-.51-.59.08-1.16.39-1.69.94l-.24-.17,1.62-2.26,7.53,5.37Z"/>
        <path class="cls-27" d="M463,171.02c1.52.62,2.54,1.6,3.06,2.94.52,1.35.47,2.72-.15,4.11-.53,1.19-1.35,2.08-2.45,2.67-1.46.78-3.03.8-4.72.05-1.69-.76-2.74-1.91-3.16-3.47-.33-1.23-.21-2.47.34-3.71.62-1.39,1.62-2.34,2.98-2.85,1.37-.51,2.73-.42,4.09.26h0ZM462.89,171.49c-.86-.39-1.71-.24-2.56.43-.69.55-1.33,1.51-1.94,2.85-.72,1.6-.96,2.91-.74,3.93.16.71.59,1.22,1.3,1.54.48.21.93.28,1.35.19.54-.11,1.07-.44,1.59-.99.52-.55,1.01-1.34,1.47-2.38.56-1.24.86-2.22.9-2.94.04-.72-.06-1.29-.3-1.7-.25-.41-.6-.73-1.07-.94Z"/>
        <path class="cls-27" d="M471.23,175.05l-1.34,4.02.28.09c.43.14.8.2,1.12.16.32-.04.62-.18.91-.42.29-.24.56-.62.79-1.12l.25.08-1.64,4.89-.25-.08c.22-.95.17-1.65-.13-2.08-.31-.43-.72-.73-1.23-.9l-.28-.09-1,2.99c-.17.5-.25.83-.23.97.01.14.08.29.21.44.13.15.33.27.6.36l.32.11-.08.25-5.08-1.7.08-.25.32.11c.28.09.53.12.73.08.15-.03.28-.11.4-.25.09-.1.22-.39.38-.89l2.15-6.44c.17-.5.25-.83.24-.97-.01-.14-.08-.29-.21-.44-.13-.15-.33-.27-.6-.36l-.32-.11.08-.25,8.22,2.75-.94,2.8-.29-.1c.15-.68.14-1.22-.03-1.63-.17-.41-.49-.77-.97-1.07-.27-.17-.79-.38-1.57-.64l-.9-.3Z"/>
        <path class="cls-27" d="M483.73,182.36c.92.4,1.55.8,1.88,1.19.48.56.65,1.2.51,1.92-.14.76-.56,1.34-1.27,1.72-.86.46-2.01.56-3.44.3l-5.14-.95.05-.26c.47.09.79.1.98.04.18-.06.32-.15.41-.28.09-.13.19-.47.29-1.02l1.22-6.59c.1-.55.13-.9.09-1.06-.04-.15-.14-.29-.29-.41-.15-.12-.46-.22-.93-.3l.05-.26,4.85.9c1.16.22,1.96.47,2.41.77.45.3.77.67.97,1.14.2.46.26.93.18,1.39-.09.49-.35.89-.78,1.2-.43.31-1.11.5-2.05.56h0ZM481.05,181.65c.71.13,1.25.15,1.62.05.37-.1.67-.27.9-.53.23-.25.39-.61.48-1.05.08-.45.06-.83-.06-1.15-.12-.32-.34-.58-.65-.8-.3-.21-.82-.38-1.56-.51l-.74,3.99h0ZM480.94,182.23l-.6,3.24-.07.37c-.05.27-.02.48.09.64.11.16.3.27.56.32.39.07.77.05,1.13-.06.36-.11.66-.32.9-.63.24-.3.4-.66.47-1.07.09-.47.07-.91-.06-1.32-.13-.41-.37-.73-.73-.95-.36-.22-.92-.41-1.69-.54Z"/>
        <path class="cls-27" d="M492.37,185.61l-3.6-.11-.48.99c-.15.33-.23.61-.24.83,0,.29.1.51.33.66.13.08.47.16,1,.22v.26s-3.43-.11-3.43-.11v-.26c.38-.05.69-.19.93-.43.25-.25.56-.76.93-1.54l3.93-8.09h.15s3.44,8.55,3.44,8.55c.33.82.6,1.34.82,1.55.17.17.41.26.72.3v.26s-4.98-.16-4.98-.16v-.26s.21,0,.21,0c.4.01.68-.04.85-.14.11-.08.17-.19.18-.35,0-.09,0-.19-.04-.29,0-.04-.08-.24-.21-.58l-.52-1.3h0ZM492.15,185.04l-1.42-3.56-1.68,3.46,3.11.1Z"/>
        <path class="cls-27" d="M506.25,184.31l-.11,3.62-9.1.69-.02-.26.34-.03c.3-.02.53-.1.71-.21.13-.08.22-.21.27-.39.05-.13.05-.45,0-.97l-.52-6.77c-.04-.53-.09-.86-.16-.99-.07-.13-.19-.24-.36-.32-.18-.09-.41-.12-.7-.1l-.34.03-.02-.26,5.47-.42.02.26-.45.03c-.3.02-.53.1-.71.22-.13.08-.22.21-.28.39-.04.13-.05.45,0,.97l.5,6.55c.04.52.1.86.17,1,.07.14.2.24.38.3.13.03.44.03.92,0l.85-.07c.54-.04.99-.17,1.33-.39.35-.22.64-.54.87-.98.23-.43.44-1.06.61-1.89l.33-.02Z"/>
        <path class="cls-27" d="M510.26,176.52c1.58-.43,2.99-.26,4.22.5,1.23.76,2.01,1.88,2.36,3.37.29,1.27.18,2.47-.34,3.61-.69,1.51-1.94,2.47-3.74,2.89-1.81.42-3.34.13-4.61-.87-1-.79-1.66-1.84-1.96-3.16-.34-1.49-.12-2.84.66-4.07.79-1.23,1.92-1.98,3.42-2.26h0ZM510.46,176.97c-.92.21-1.51.84-1.78,1.89-.21.86-.15,2.01.18,3.44.39,1.71.99,2.9,1.78,3.58.55.47,1.21.62,1.96.45.51-.12.91-.34,1.19-.66.36-.42.59-1,.67-1.75.08-.75,0-1.68-.26-2.79-.31-1.32-.66-2.29-1.06-2.89-.4-.6-.82-.99-1.27-1.17-.45-.18-.92-.22-1.42-.1Z"/>
        <path class="cls-27" d="M524.65,172.01l1.19,3.37-.28.1c-.52-.81-1.15-1.35-1.89-1.62-.74-.27-1.47-.28-2.19-.02-.6.21-1.1.58-1.48,1.11-.38.53-.59,1.11-.62,1.76-.05.83.09,1.68.4,2.57.31.87.7,1.63,1.16,2.26.47.64,1,1.06,1.6,1.26.6.2,1.27.17,2.01-.09.61-.21,1.12-.55,1.53-.99.41-.45.78-1.09,1.12-1.95l.29.84c-.34.76-.76,1.37-1.26,1.84-.5.46-1.14.83-1.93,1.11-1.04.36-2.03.48-2.98.35-.95-.13-1.78-.51-2.49-1.14-.71-.63-1.22-1.38-1.53-2.26-.33-.93-.39-1.89-.2-2.89.19-1,.62-1.88,1.28-2.62.66-.75,1.45-1.28,2.38-1.61.68-.24,1.45-.34,2.31-.31.5.02.81,0,.93-.03.15-.05.27-.16.34-.31.07-.15.08-.36.03-.61l.28-.1Z"/>
        <path class="cls-27" d="M530.22,175.49l1.43,2.86c.24.48.41.76.52.85.11.09.26.15.46.16.2.02.42-.04.68-.17l.3-.15.12.24-4.8,2.4-.12-.24.3-.15c.27-.13.46-.29.57-.47.09-.12.12-.28.11-.46,0-.13-.12-.43-.36-.9l-3.03-6.07c-.24-.48-.41-.76-.52-.85-.11-.09-.26-.15-.46-.16-.2-.02-.42.04-.68.17l-.3.15-.12-.24,4.8-2.4.12.24-.3.15c-.26.13-.45.29-.57.46-.08.12-.12.28-.11.47,0,.13.12.43.36.9l1.31,2.61,3.27-1.63-1.31-2.61c-.24-.48-.41-.76-.52-.85-.11-.09-.26-.15-.46-.16-.2-.01-.42.04-.68.17l-.3.15-.12-.24,4.8-2.4.12.24-.3.15c-.27.13-.46.29-.57.46-.09.12-.12.28-.11.47,0,.13.12.43.36.9l3.03,6.08c.24.48.41.76.52.85.11.09.26.15.46.16.2.01.42-.04.68-.17l.3-.15.12.24-4.8,2.4-.12-.24.3-.15c.27-.13.46-.29.57-.46.09-.12.12-.28.11-.47,0-.13-.12-.43-.36-.9l-1.43-2.86-3.27,1.63Z"/>
        <path class="cls-27" d="M544.27,172.64l.14.22-4.52,2.88-.14-.22.29-.18c.25-.16.43-.34.52-.52.07-.13.09-.29.06-.47-.02-.13-.17-.42-.45-.86l-3.65-5.73c-.28-.45-.49-.71-.6-.79-.12-.08-.28-.12-.47-.11-.2,0-.41.09-.66.24l-.29.18-.14-.22,4.52-2.88.14.22-.29.18c-.25.16-.42.33-.52.52-.07.13-.09.29-.06.48.02.13.17.42.45.86l3.65,5.73c.29.45.49.71.61.79.12.08.28.12.47.11.2,0,.42-.09.66-.24l.29-.18Z"/>
        <path class="cls-27" d="M543.63,160.01l2.19,2.65-.24.19c-.65-.58-1.36-.9-2.13-.96-.78-.05-1.43.13-1.95.54-.41.32-.64.68-.71,1.09-.07.4.01.75.23,1.03.14.18.31.3.5.38.26.1.59.13.99.12.29-.02.91-.12,1.84-.32,1.31-.28,2.3-.35,2.95-.19.65.16,1.19.5,1.61,1.03.53.68.72,1.46.58,2.37-.14.9-.62,1.67-1.43,2.31-.25.2-.52.36-.78.49-.27.13-.63.26-1.09.38-.25.07-.44.16-.57.25-.1.08-.18.21-.23.38-.05.17-.05.37,0,.59l-.21.16-2.4-3.05.21-.16c.85.72,1.7,1.11,2.56,1.17.85.06,1.57-.14,2.15-.6.45-.35.71-.75.78-1.2.07-.45-.02-.84-.27-1.16-.15-.19-.35-.33-.59-.43-.24-.1-.53-.15-.86-.15-.33,0-.87.08-1.59.24-1.02.22-1.79.33-2.31.33-.52,0-.99-.09-1.41-.27-.42-.18-.78-.46-1.08-.83-.51-.64-.7-1.38-.59-2.21.11-.83.53-1.52,1.25-2.09.26-.21.54-.38.84-.51.23-.1.52-.19.89-.27.37-.08.61-.17.71-.25.1-.08.16-.18.17-.29,0-.11-.05-.31-.19-.59l.18-.14Z"/>
        <path class="cls-27" d="M551.07,153.45l1.91,2.02-.19.18c-.56-.35-1.01-.57-1.34-.64-.34-.07-.69-.04-1.05.07-.2.07-.48.26-.83.59l-.56.53,5.47,5.78c.36.39.61.61.75.66.13.06.3.06.48.02.19-.04.39-.16.6-.36l.24-.23.18.19-3.9,3.68-.18-.19.25-.23c.21-.2.35-.41.41-.61.04-.14.04-.3-.03-.48-.04-.13-.24-.38-.6-.76l-5.47-5.78-.54.51c-.5.47-.76.92-.79,1.35-.04.6.16,1.21.6,1.84l-.21.2-1.91-2.02,6.72-6.35Z"/>
        <path class="cls-27" d="M559.26,154.73l-2.23,2.83.51.97c.18.32.35.55.53.68.23.18.47.22.72.13.15-.06.41-.28.77-.68l.21.16-2.12,2.69-.21-.16c.18-.32.25-.66.2-1-.05-.34-.28-.9-.69-1.66l-4.17-7.97.09-.11,8.92,2.3c.85.22,1.43.31,1.74.26.23-.04.45-.17.67-.4l.21.16-3.08,3.91-.21-.16.13-.16c.25-.31.38-.57.39-.77,0-.14-.05-.25-.17-.35-.07-.06-.16-.11-.25-.14-.04-.02-.24-.08-.59-.18l-1.36-.35h0ZM558.67,154.58l-3.71-.96,1.78,3.41,1.92-2.44Z"/>
        <path class="cls-27" d="M558.19,143.6l8.11-.79-3.71-2.41c-.52-.34-.92-.49-1.21-.46-.38.04-.72.31-1.03.79l-.22-.14,1.85-2.86.22.14c-.19.4-.29.68-.3.86,0,.17.05.35.18.53.12.18.39.4.8.67l7.2,4.67-.14.22-10.99,1.16,5.51,3.57c.5.32.91.43,1.24.32.32-.11.58-.32.77-.61l.13-.2.22.14-1.99,3.08-.22-.14c.31-.48.42-.87.35-1.19-.07-.31-.34-.62-.8-.92l-6.11-3.96-.34.04c-.35.03-.61.09-.78.18-.16.09-.34.27-.52.52l-.22-.14,1.98-3.06Z"/>
        <g>
          <path class="cls-26" d="M474.96,78.68c.28-1.61.91-1.1,2.25-1.48.56-.16.43-.49,1.08-.06.44.3-.17.28,1.33.39-.35,1.62-1.4,4.49-.22,5.7,1.2.2,2.38-1.37,3.07-1.93,2.13-1.77,3.01-4.45,8.55,1.85,1.13,1.29,1.3,1.35.78,3.31-1.18,4.42-.3,4.71-.25,6.44l-1.98,5.25-1.47-.1c.42-1.08.64.57,2.11-3.74.65-1.89-.45-2.86-.76-4.67-.42,1.52-.01,2.51-.68,4.28l-1.52,3.56-1.44-.13c.55-1.12.89-.05,1.43-1.67.84-2.52,1.73-4.64.19-7.38-.75.07-1.23.35-2.09.25-.63-.07-1.28-.37-1.95-.47.22,2.05,1.18,2.6.47,4.68-.34.98-.78,4.09-1.08,4.58l-.88.18s-.08.02-.12.04l-.42.2c-.54.23-.9.18-1.43.08.18-.66.3-.68.92-.89.54-15.78.11-8.32-2.72-10.8-.67-.59-1.16-1.52-1.05-2.69.52-5.26.43-4.01-2.16-4.75h0ZM495.17,78.68c.29-1.59.9-1.1,2.25-1.48.56-.16.44-.49,1.09-.07.9.59.04.16,1.33.45-.37,1.55-1.37,4.45-.22,5.64.85.45,2.51-1.46,3.07-1.92,2.12-1.77,2.99-4.47,8.55,1.84,1.18,1.34,1.3,1.36.79,3.32-1.65,6.35.66,4.53-.89,8.08-.38.87-.97,3-1.34,3.53-.29.05-.5.1-.8.08l-.66-.21c.56-.83.8.23,2.14-3.77.57-1.72-.49-2.88-.8-4.56-.45,1.59.03,2.49-.68,4.28l-1.07,2.67c-.51,1.47-1.54.93-1.88.63,1.01-1.37.7,1.12,2.23-4.01.55-1.83.03-3.37-.59-4.93-2.52.47-1.81.18-4.06-.18.24,2.05,1.18,2.6.47,4.68-.33.98-.78,4.07-1.08,4.58l-1.41.41c-.54.22-.91.17-1.43.07.2-.75.18-.64.94-.88.05-2.38.35-8.21.09-10.22-1.24-.61-1.36.61-2.75-.53-2.02-1.65-.67-3.81-.87-6.21-.11-1.3-1.31-.98-2.41-1.31h0ZM490.75,64.29c.18-.15.67-.65.89-.86l-.06,1.27,1.06.5c-1.75.71-.82-.35-1.38,1.55l-.55-1.03-1.3.17.75-.9-.57-1.15,1.15.43h0ZM488.77,70.1c1.3,3.26,6.53,4.24,9.16,1.2,1-1.16,1.83-3.27,1.19-5.36-.47-1.55-1.88-3.26-3.42-3.62.71.91,1.5,1.62,1.71,3.38.42,3.57-3.05,6.71-6.9,5.4-.93-.32-1.08-.71-1.74-.99h0ZM497.29,57.38h-4.63c-.62.23-4.84.39-8.96,1.78-3.95,1.33-9.94,4.48-12.79,7.43l-2,2.04c-.28.27-.44.35-.7.64-6.88,7.93-10.39,18.23-8.63,29.28.31,1.97,1.4,7.08,2.46,8.21.29-.29.77-.92,1.13-1.37l3.27-3.92c1.49-1.79,2.84-3.46,4.4-5.19.03.02.06.06.08.07l6.31,8.97c.52.8,1.05,1.53,1.59,2.3l4.78,6.68,11.16-19.36c.96.89,11.2,17.36,12.4,18.66,1.91-2.33,11.06-15.29,11.88-16.07l7.11,5.42c.67.51,1.66,1.42,2.35,1.75.3-1.31.81-2.62,1.13-4.11,3.29-15.08-3.72-30.62-16.75-38.27-8.45-4.96-14.18-4.36-15.59-4.95Z"/>
          <path class="cls-23" d="M494.37,143.81l-.69-.64.68-.68.58.6-.56.72h0ZM479.42,142.91l.67-.66.61.59c-.2.43-.25.4-.58.71l-.69-.65h0ZM480.26,142.13l.65.63.61-.69-.66-.53-.6.6h0ZM478.61,142.13l.64.58.62-.64-.68-.59-.58.65h0ZM489.1,140.87c-.37-.82-.56-1.1-1.45-1.36-2.92-.85-4.32,3.05.15,2.47-.55,1.41-1.19.39-1.39,1.67,1.43.7,2.46-1.35,3-1.48h7.1c.03-1.06.4-2.64-.75-2.54-.51.69-.12.64-.36,1.31l-3.15.04-.08-3.28c-.95-.22-1.08-.06-1.07.95.01.76.03,1.53.04,2.3l-2.03-.07h0ZM515.29,135.55c.37.31.4.25.59.72l-.62.52-.59-.69.63-.55h0ZM516.65,135.39l.59.6-.65.63-.61-.7.67-.53h0ZM529.21,133.06c-.71-.79-.15-1.61-1.41-1.21-.2.74.05,1.1.29,1.82-1.47,1.08-10.66,3.87-13.15,4.5-2.39.61-4.85,1.09-7.33,1.51-1.39.24-7.44.73-8,.95-.16.72,0,1.13.24,1.64,7.96-.24,19.62-3.24,27-6.4,1.33-.57,2.5-1.14,3.78-1.75,1.06-.51.96-.36,1.22-1.64.11-.54.24-1.2.81-1.31.39-.07-.13-.04.25,0,.65.06.13-.02.38.13.19.9-.48.42-.57,1.16-.21,1.65,3.24-1.58.91-2.58-1.23-.53-2.2.28-2.58,1.06-.67,1.38-.05,1.64-1.85,2.12h0ZM454.19,125.9c.48.21.49.29.77.65l-.59.58c-.42-.19-.39-.18-.63-.6.19-.33.24-.33.45-.63h0ZM453.99,125.56l-.47-.42c-.56.19-.55.21-.79.71.4.25.37.32.74.53.29-.43.28-.21.51-.82h0ZM446.39,125.64c1.45,2.1,2.22-1.06,2.41-1.39.51-.87,1.68-.47-.02,2.38-1.04,1.74-2.61.91-3.1.21-.61-.89.03-3.49,1.3-3.09.2.82-.44.95-.59,1.89h0ZM472.93,139.11c-1.22.54-3.5-.68-4.7-1.13-4.2-1.6-8.39-3.57-12.12-5.85-1.34-.82-2.42-1.53-3.67-2.32-.61-.39-1.22-.79-1.81-1.19-1.12-.76-1.44-.85-1.28-1.55l1.33-3.18c.41-1.07.29-.85.6-.93,1.13-.3.14,1.32-.06,1.77-.33.75-.78,1.4-.74,2.3.43.33,1.99,1.34,2.54,1.6.08-.25.14-.53.24-.79l.35-.58c1.08.42.41.98.19,1.98,1.36.8,2.78,1.79,4.23,2.62,2.61,1.49,11.71,5.95,13.9,6.1l.19-1.63,1.06.16-.11,2.04c.55.16.78.38,1.43.18l.14-1.4s.09-.03.12-.04c.39-.08-.07-.17.89.03v1.82s1.32.32,1.32.32l.14-1.53.79.08c.07.13.07.11.11.39l-.04,1.16,3.46.7c-.45-1.77-1.79-1.34-2.27-1.35-.3,0-.15.02-.35-.07.21-.39.08-.33.66-.49,1.94-.52,2.22,1.77,4.05,2.09l-.36,1.14s-.09.02-.12.02c-.85.09-6.65-1.28-6.87-1.4-.9-.48-.15-.25-1.07-.1-1.1.18-1.77-.55-2.19-.96h0ZM448.11,122.57l-.63.52.58.72c.44-.3.45-.27.63-.76l-.59-.48h0ZM536.81,126.24c.12-.73,1.05-1.7,1.49-2.29.86-1.16,1.03-1.81,1.9-1.52.08,1.08-1.59,2.3-2.09,3.29,1.76.24,1.83-.18,2.63.52.83-.57,2.02-1.3,2.67-1.95-.33-.17-.8-.35-1.27-.11-.88.46,0,.88-1.1.71-.42-.71.81-1.69,1.38-1.76.59-.08,1.95.45,2.36.75l.18.18c.49,1.01-1.56,1.93-2.86,2.79-.84.55-2.84,1.78-3.42,2.38-.06.88-.02,2.84-1.22,2.42-.14-.19-.1,0-.13-.34-.07-.86-.11.35.02-.22.11-.49.58-.39.35-1.52-.61.33-1.24,1.07-2.32.81-.27-.47-.48-1.28-.25-1.97.22-.64.9-.76,1.71-.7,1.24.09.77.94,3.09-1.01-1.05-.48-2.33.03-3.12-.47h0ZM540.15,114.71c.33.8,1.93,1.19,1.42,2.92-.25.83-1.37,2.06-1.82,2.54-3.56,3.77-11.16,8.22-15.86,10.33-21.1,9.48-43.43,8.01-63.42-3.03-2.66-1.47-5.46-3.45-7.69-5.33-7.11-5.98-2.99-6.27-2.62-7.43-.76-.66-1.11.03-1.43.5-1.59,2.32-5.42,9.14-5.92,11.23.9.5,1.65,1.28,2.54,1.93,6.46,4.72,11.88,8.21,19.73,11.4,19.32,7.86,40.82,7.84,60.15,0,4.42-1.79,8.09-3.81,11.81-5.99,1.9-1.11,3.72-2.32,5.41-3.57.83-.62,1.72-1.24,2.6-1.9.84-.62,1.62-1.4,2.45-1.86-.36-1.43-2.44-5.37-3.22-6.73-.63-1.11-1.11-2.13-1.78-3.16-.5-.77-1.32-2.62-2.34-1.84Z"/>
          <path class="cls-26" d="M540.98,138.62c-.41,2,.15,2.71.94,3.78-2.6.19-4.12-.26-6.66.49-1.59.47-4.88,2-4.91-.65-.03-2.73,3.13-1.66,5.15-1.78,2.03-.12,3.62-1.46,5.48-1.85h0ZM446.97,138.96c1.08-1.31,1.94-.69,2.06.6l-.23.11c-.12.04-.23.08-.36.11-1.22.24-1.26-.45-1.47-.82h0ZM541.33,139.68c1.21.14,1.55.38,2.05-.73-.64-.75-.68-.87-1.83-.51l-.22,1.24h0ZM449.37,138.62c.27,1.99.08,2.62-.93,3.77,2.62.35,3.88-.28,6.74.55,1.53.44,4.6,1.87,4.82-.58.24-2.78-3.04-1.8-5.03-1.88-2.13-.09-3.7-1.46-5.6-1.86h0ZM544.57,141.55c3.16-1.5.54-8.95-1.52-9.6-1.63-.52-.18,1.44-.38,2.02-.22.64-1.54.71-2.15,1.33-.53.54-.94,1.53-1.53,1.93-1.18.79-1.03-.67-2.42-.47-.35.33-.66.79-.64,1.6.02.81.34.89.71,1.35,1.35-.16,3.4-1.45,5.1-1.84,2-.47,2.96,1.74,2.83,3.69h0ZM453.77,136.75c-1.35-.15-1.32,1.26-2.46.49-.62-.42-1.03-1.5-1.48-1.97-.58-.59-1.92-.63-2.16-1.32-.27-.77.25-.8.39-1.35.16-.66-.16-.88-.8-.66-1.9.64-4.75,7.9-1.48,9.59-.15-2,.9-4.16,2.92-3.64,1.71.44,3.57,1.6,5,1.82.44-.55.75-.49.71-1.5-.03-.76-.27-1.14-.64-1.46h0ZM540.15,114.71c.33.8,1.93,1.19,1.42,2.92-.25.83-1.37,2.06-1.82,2.54-3.56,3.77-11.16,8.22-15.86,10.33-21.1,9.48-43.43,8.01-63.42-3.03-2.66-1.47-5.46-3.45-7.69-5.33-7.11-5.98-2.99-6.27-2.62-7.43-.76-.66-1.11.03-1.43.5-1.59,2.32-5.42,9.14-5.92,11.23.9.5,1.65,1.28,2.54,1.93,6.46,4.72,11.88,8.21,19.73,11.4,19.32,7.86,40.82,7.84,60.15,0,4.42-1.79,8.09-3.81,11.81-5.99,1.9-1.11,3.72-2.32,5.41-3.57.83-.62,1.72-1.24,2.6-1.9.84-.62,1.62-1.4,2.45-1.86-.36-1.43-2.44-5.37-3.22-6.73-.63-1.11-1.11-2.13-1.78-3.16-.5-.77-1.32-2.62-2.34-1.84h0ZM528.46,126.33c-1.36-1.14-3.8-7.63-1.85-10.78,1-1.6,3.06-1.14,5.89-1.13h5.24c.95,0,1.11-.09,1.45.19-2.35-.27-3.63.55-3.85,2.79-.15,1.53.22,1.77.82,2.63,1.49,2.13-2.12,2.06-3.3,2.68-.71.37-1.45.79-2.43.49-.87-.27-1.91-.18-1.64,1.02.14.63,1.03,1.74-.34,2.11h0ZM455.07,118.56c.11-.7-.04-1.81-.3-2.44-.88-2.16-3.35-1.39-3.65-1.56.46-.26,8.76-.15,10.74-.15,2.53,0,2.93,3.48,2.58,5.87-.32,2.19-.81,3.13-1.71,4.88-.13.25-.19.41-.36.69-.39.61-.02.31-.51.49-.55-.22-.83-.68-.51-1.5.34-.89.49-.56.11-1.65-1.17-.45-1.11.13-2.15.15-.84.02-1.44-.48-2.01-.77-1.01-.52-1.33-.27-2.3-.53-2.42-.64-.07-2.58.07-3.48h0ZM441.65,126.42v.24l4.83,3.76c-1.45,2.19-3.01,4.34-3.09,7.93-.14,6.82,6.55,3.5,11.44,4.93,1.12.33,3.41,1.37,4.55.85,1.35-.62,1.99-4.36-1.71-4.26-1.05.03-1.87.31-2.45-.43-.2-.65.1-1.06.43-1.44.47-.55.46-.53.84-1.24,6.61,3.08,8.33,4.36,16.08,6.63,4.45,1.3,9.57,2.32,14.29,2.78,1.01.1,4.8.26,5.37.44h7.27c1.09-.48,3.54-.38,4.91-.54,4.72-.54,9.34-1.44,13.82-2.82,4.03-1.24,8.24-2.78,11.95-4.65,1.16-.58,2.6-1.41,3.69-1.84.43,1,1.54,1.67,1.26,2.74-1.05,1.04-3.32-.22-4.51.88-1.04.97-.9,3.22.43,3.8,1,.44,3.2-.48,4.21-.8,4.77-1.53,11.72,1.89,11.7-4.85-.01-3.8-1.6-5.63-3.11-8.08l2.36-1.87c.35-.28.79-.61,1.18-.92.46-.35.81-.75,1.28-.99v-.22c-.59-.74-5.11-11.53-7.36-12.74-.55-.3-11.89-.3-13.15-.2-3.76.31-3.59,6.23-2.46,9.52.82,2.4,1.69,3.24,2.18,4.42-1.15.88-5.37,2.72-6.98,3.35-16.46,6.44-35.16,6.88-51.56-.05-1.36-.57-6.13-2.54-6.82-3.3,1.55-2.59,3.62-6.27,2.83-10.38-.35-1.83-1.24-3.44-3.18-3.57-1.33-.09-12.64-.07-13.16.2-.84.44-2.3,2.85-2.87,3.87l-4.48,8.87Z"/>
          <path class="cls-23" d="M481.81,96.56c-.41-1.96.24-5.07.28-7.28,1.05.41,1.26,2.44,1.02,3.73-.49,2.64-.32,3.07-1.3,3.56h0ZM474.96,78.68c2.59.74,2.68-.51,2.16,4.75-.12,1.17.38,2.1,1.05,2.69,2.82,2.49,3.26-4.97,2.72,10.8-.61.2-.74.22-.92.89.53.09.89.14,1.43-.08l.42-.2s.08-.02.12-.04l.88-.18c.3-.49.74-3.6,1.08-4.58.71-2.08-.25-2.63-.47-4.68.67.1,1.32.39,1.95.47.85.1,1.34-.18,2.09-.25,1.53,2.74.65,4.85-.19,7.38-.54,1.62-.88.55-1.43,1.67l1.44.13,1.52-3.56c.67-1.77.26-2.76.68-4.28.31,1.81,1.41,2.78.76,4.67-1.47,4.32-1.69,2.67-2.11,3.74l1.47.1,1.98-5.25c-.05-1.72-.93-2.02.25-6.44.52-1.95.35-2.02-.78-3.31-5.55-6.3-6.42-3.62-8.55-1.85-.69.57-1.87,2.13-3.07,1.93-1.18-1.21-.13-4.08.22-5.7-1.5-.11-.89-.09-1.33-.39-.65-.44-.52-.1-1.08.06-1.35.38-1.97-.12-2.25,1.48Z"/>
          <path class="cls-23" d="M502.02,96.56c-.41-1.99.25-5.04.28-7.28,1.05.38,1.25,2.44,1.03,3.72-.12.7-.31,1.41-.44,2.11-.22,1.17.04,1.01-.87,1.45h0ZM495.17,78.68c1.1.32,2.3,0,2.41,1.31.2,2.39-1.14,4.56.87,6.21,1.39,1.14,1.51-.08,2.75.53.27,2.01-.03,7.83-.09,10.22-.76.24-.75.13-.94.88.52.1.89.15,1.43-.07l1.41-.41c.31-.51.75-3.6,1.08-4.58.71-2.09-.23-2.63-.47-4.68,2.24.36,1.54.65,4.06.18.62,1.55,1.13,3.1.59,4.93-1.54,5.14-1.22,2.65-2.23,4.01.34.31,1.37.84,1.88-.63l1.07-2.67c.71-1.79.24-2.69.68-4.28.31,1.68,1.37,2.85.8,4.56-1.34,4-1.58,2.94-2.14,3.77l.66.21c.3.02.51-.04.8-.08.36-.53.96-2.67,1.34-3.53,1.55-3.55-.76-1.74.89-8.08.51-1.96.4-1.97-.79-3.32-5.56-6.3-6.43-3.6-8.55-1.84-.56.47-2.22,2.37-3.07,1.92-1.15-1.19-.15-4.09.22-5.64-1.29-.29-.42.14-1.33-.45-.65-.43-.53-.09-1.09.07-1.35.38-1.96-.11-2.25,1.48Z"/>
          <path class="cls-23" d="M451.12,114.56c.3.17,2.77-.6,3.65,1.56.26.63.41,1.74.3,2.44-.15.89-2.5,2.84-.07,3.48.97.26,1.29.01,2.3.53.56.29,1.17.79,2.01.77,1.04-.03.98-.61,2.15-.15.38,1.09.23.76-.11,1.65-.31.82-.04,1.28.51,1.5.49-.17.12.13.51-.49.18-.28.24-.44.36-.69.9-1.75,1.39-2.69,1.71-4.88.35-2.39-.05-5.87-2.58-5.87-1.98,0-10.28-.11-10.74.15Z"/>
          <path class="cls-23" d="M528.46,126.33c1.38-.36.49-1.48.34-2.11-.27-1.2.77-1.29,1.64-1.02.98.3,1.72-.12,2.43-.49,1.18-.62,4.79-.55,3.3-2.68-.6-.86-.97-1.1-.82-2.63.22-2.24,1.5-3.06,3.85-2.79-.34-.28-.5-.18-1.45-.17h-5.24c-2.83-.02-4.89-.49-5.89,1.12-1.96,3.15.49,9.64,1.85,10.78Z"/>
          <path class="cls-26" d="M529.21,133.06c-.71-.79-.15-1.61-1.41-1.21-.2.74.05,1.1.29,1.82-1.47,1.08-10.66,3.87-13.15,4.5-2.39.61-4.85,1.09-7.33,1.51-1.39.24-7.44.73-8,.95-.16.72,0,1.13.24,1.64,7.96-.24,19.62-3.24,27-6.4,1.33-.57,2.5-1.14,3.78-1.75,1.06-.51.96-.36,1.22-1.64.11-.54.24-1.2.81-1.31.39-.07-.13-.04.25,0,.65.06.13-.02.38.13.19.9-.48.42-.57,1.16-.21,1.65,3.24-1.58.91-2.58-1.23-.53-2.2.28-2.58,1.06-.67,1.38-.05,1.64-1.85,2.12Z"/>
          <path class="cls-20" d="M472.93,139.11c.42.42,1.09,1.14,2.19.96.92-.15.16-.38,1.07.1.22.12,6.02,1.49,6.87,1.4.03,0,.08-.01.12-.02l.36-1.14c-1.83-.32-2.11-2.62-4.05-2.09-.58.16-.45.1-.66.49.2.09.05.06.35.07.48.01,1.81-.43,2.27,1.35l-3.46-.7.04-1.16c-.04-.28-.04-.25-.11-.39l-.79-.08-.14,1.53-1.33-.32v-1.82c-.95-.19-.49-.1-.88-.03-.03,0-.08.02-.12.04l-.14,1.4c-.65.2-.89-.02-1.43-.18l.11-2.04-1.06-.16-.19,1.63c-2.18-.15-11.29-4.62-13.9-6.1-1.45-.82-2.87-1.82-4.23-2.62.22-1,.89-1.56-.19-1.98l-.35.58c-.1.26-.17.54-.24.79-.55-.25-2.11-1.26-2.54-1.6-.05-.9.4-1.55.74-2.3.2-.45,1.19-2.06.06-1.77-.31.08-.19-.14-.6.93l-1.33,3.18c-.16.7.16.79,1.28,1.55.59.4,1.2.81,1.81,1.19,1.25.79,2.33,1.5,3.67,2.32,3.72,2.28,7.92,4.25,12.12,5.85,1.2.46,3.48,1.68,4.7,1.13Z"/>
          <path class="cls-23" d="M453.77,136.75c-1.35-.15-1.32,1.26-2.46.49-.62-.42-1.03-1.5-1.48-1.97-.58-.59-1.92-.63-2.16-1.32-.27-.77.25-.8.39-1.35.16-.66-.16-.88-.8-.66-1.9.64-4.75,7.9-1.48,9.59-.15-2,.9-4.16,2.92-3.64,1.71.44,3.57,1.6,5,1.82.44-.55.75-.49.71-1.5-.03-.76-.27-1.14-.64-1.46Z"/>
          <path class="cls-23" d="M536.64,139.71c1.35-.16,3.4-1.45,5.1-1.84,2-.47,2.96,1.74,2.83,3.69,3.16-1.5.54-8.95-1.52-9.6-1.63-.52-.18,1.44-.38,2.02-.22.64-1.54.71-2.15,1.33-.53.54-.94,1.53-1.53,1.93-1.18.79-1.03-.67-2.42-.47-.35.33-.66.79-.64,1.6.02.81.34.89.71,1.35Z"/>
          <path class="cls-23" d="M454.97,140.48c-2.13-.09-3.7-1.46-5.6-1.86.27,1.99.08,2.62-.93,3.77,2.62.35,3.88-.28,6.74.55,1.53.44,4.6,1.87,4.82-.58.24-2.78-3.04-1.8-5.03-1.88Z"/>
          <path class="cls-23" d="M540.98,138.62c-1.86.39-3.45,1.73-5.48,1.85-2.02.12-5.18-.95-5.15,1.78.03,2.64,3.32,1.12,4.91.65,2.54-.76,4.06-.3,6.66-.49-.79-1.07-1.34-1.78-.94-3.78Z"/>
          <path class="cls-23" d="M488.77,70.1c1.3,3.26,6.53,4.24,9.16,1.2,1-1.16,1.83-3.27,1.19-5.36-.47-1.55-1.88-3.26-3.42-3.62.71.91,1.5,1.62,1.71,3.38.42,3.57-3.05,6.71-6.9,5.4-.93-.32-1.08-.71-1.74-.99Z"/>
          <path class="cls-20" d="M535.91,129.58s-.24-.03-.05-.57c.15-.42.63-.66,1.23-.33,0,.63-.66,1.02-1.18.9h0ZM536.81,126.24c.79.5,2.07,0,3.12.47-2.32,1.94-1.85,1.09-3.09,1.01-.81-.06-1.49.06-1.71.7-.24.69-.03,1.51.25,1.97,1.08.26,1.71-.48,2.32-.81.23,1.13-.23,1.03-.35,1.52-.13.56-.09-.65-.02.22.03.34,0,.14.13.34,1.19.41,1.16-1.55,1.22-2.42.58-.6,2.58-1.82,3.42-2.38,1.3-.86,3.35-1.78,2.86-2.79l-.18-.18c-.41-.3-1.77-.83-2.36-.75-.57.08-1.79,1.06-1.38,1.76,1.1.17.22-.25,1.1-.71.47-.25.94-.06,1.27.11-.65.65-1.84,1.38-2.67,1.95-.8-.7-.87-.28-2.63-.52.51-.99,2.18-2.21,2.09-3.29-.87-.3-1.04.35-1.9,1.52-.43.59-1.36,1.56-1.49,2.29Z"/>
          <path class="cls-25" d="M487,141.2c-1.8.17.31-2,.8-.06l-.8.06h0ZM489.1,140.87c-.37-.82-.56-1.1-1.45-1.36-2.92-.85-4.32,3.05.15,2.47-.55,1.41-1.19.39-1.39,1.67,1.43.7,2.46-1.35,3-1.48h7.1c.03-1.06.4-2.64-.75-2.54-.51.69-.12.64-.36,1.31l-3.15.04-.08-3.28c-.95-.22-1.08-.06-1.07.95.01.76.03,1.53.04,2.3l-2.03-.07Z"/>
          <path class="cls-20" d="M446.39,125.64c.15-.94.79-1.07.59-1.89-1.26-.4-1.91,2.2-1.3,3.09.49.7,2.06,1.53,3.1-.21,1.7-2.85.53-3.25.02-2.38-.2.33-.96,3.49-2.41,1.39Z"/>
          <path class="cls-23" d="M481.81,96.56c.98-.49.81-.92,1.3-3.56.24-1.29.03-3.31-1.02-3.73-.04,2.22-.69,5.32-.28,7.28Z"/>
          <path class="cls-23" d="M502.02,96.56c.91-.44.66-.28.87-1.45.13-.7.32-1.4.44-2.11.22-1.28.02-3.34-1.03-3.72-.04,2.23-.69,5.29-.28,7.28Z"/>
          <path class="cls-23" d="M490.75,64.29l-1.15-.43.57,1.15-.75.9,1.3-.17.55,1.03c.56-1.9-.37-.84,1.38-1.55l-1.06-.5.06-1.27c-.22.22-.72.71-.89.86Z"/>
          <path class="cls-23" d="M541.33,139.68c1.21.14,1.55.38,2.05-.73-.64-.75-.68-.87-1.83-.51l-.22,1.24Z"/>
          <path class="cls-23" d="M446.97,138.96c.21.37.25,1.06,1.47.82.13-.03.24-.07.36-.11l.23-.11c-.11-1.29-.97-1.9-2.06-.6Z"/>
          <path class="cls-23" d="M535.91,129.58c.52.12,1.19-.27,1.18-.9-.6-.33-1.07-.09-1.23.33-.2.54.05.57.05.57Z"/>
          <path class="cls-23" d="M487,141.2l.8-.06c-.49-1.94-2.6.22-.8.06Z"/>
          <path class="cls-25" d="M452.73,125.85c.4.25.37.32.74.53.29-.43.28-.21.51-.82l-.47-.42c-.56.19-.55.21-.79.71Z"/>
          <path class="cls-25" d="M480.11,143.56c.33-.31.38-.28.58-.71l-.61-.59-.67.66.69.65Z"/>
          <path class="cls-25" d="M453.74,126.53c.25.42.21.41.63.6l.59-.58c-.29-.36-.3-.44-.77-.65-.2.3-.26.3-.45.63Z"/>
          <polygon class="cls-25" points="494.93 143.09 494.35 142.5 493.67 143.18 494.37 143.81 494.93 143.09"/>
          <path class="cls-25" d="M447.48,123.09l.58.72c.44-.3.45-.27.63-.76l-.59-.48-.63.52Z"/>
          <path class="cls-25" d="M514.66,136.11l.59.69.62-.52c-.19-.46-.21-.41-.59-.72l-.63.55Z"/>
          <polygon class="cls-25" points="515.98 135.92 516.59 136.62 517.24 135.99 516.65 135.39 515.98 135.92"/>
          <polygon class="cls-25" points="479.25 142.7 479.87 142.06 479.2 141.47 478.61 142.13 479.25 142.7"/>
          <polygon class="cls-25" points="480.92 142.75 481.52 142.06 480.86 141.53 480.26 142.13 480.92 142.75"/>
        </g>
      </g>
      <g id="Layer_1-3" data-name="Layer_1">
        <g id="_2695952220032" data-name=" 2695952220032">
          <g>
            <path class="cls-29" d="M114.27,130.21c.46-.59-.53-.6.54-.48l.27.95c.23,1.31.89,3.4,1.45,4.36l5.25.03-2.11,1.87c-.89.63-1.3.77-2.14,1.63l1.57,5.21c-1.75-.76-2.91-2.17-4.49-3.01-1.81.75-2.85,2.29-4.63,2.92l1.5-5.15c-.59-.57-1.32-1.08-1.97-1.55-.92-.67-1.64-1.05-2.18-1.94h5.36l1.59-4.85h0ZM90.65,123.43l1.58,5.25h5.65c-.93,1.3-3.11,2.32-4.36,3.58l1.5,5.09c-1.32-.57-3.02-2.06-4.5-2.98-1.48.93-3.18,2.41-4.59,2.97l1.54-5.1c-1.17-1.19-3.42-2.33-4.31-3.57l5.55-.03,1.94-5.22h0ZM134.65,137.03l-.92.61.52-1.02,1.23-4.83c-1.81-.71-2.97-2.13-4.36-3.06l5.7-.14c.44-1.69.85-3.93,1.84-5.16l1.88,5.25,5.4.07c-1.15,1.05-2.82,2.39-4.47,3.15l1.64,5.52c-1.5-.7-3-2.04-4.42-3.01-1.47.56-2.72,1.86-4.04,2.64h0ZM155.69,106.36l.42-.84c.66-.09.49-.21.4.46l1.57,5.04,5.41.08c-1.19,1.32-2.79,2.16-4.32,3.4l1.53,5.21c-1.75-.78-2.92-2.22-4.6-2.95-1.58.95-2.68,2.06-4.53,2.99l1.5-5.27c-1.61-1.52-2.43-1.54-3.77-2.94l5-.47,1.39-4.7h0ZM77.11,118.95l.44,1.05c-1.93-.24-.44.02-1.06-.57-1.07-1.27-2.29-1.63-3.27-2.73-1.33.51-3.81,2.34-4.91,3.12l1.49-5.35c-1.24-1.21-2.3-1.5-3.79-2.97l5.07-.57,1.87-5.3,1.82,5.38,5.42.07c-1.03,1.31-2.75,2.28-4.28,3.42l1.21,4.45ZM162.62,81.53l1.85,5.33,5.37.09c-1.65,1.81-1.98,1.35-4.3,3.46l1.59,5.16c-1.98-.83-2.71-2.2-4.72-2.96-1.55,1.02-2.73,2.1-4.47,2.99l1.55-5.22c-.7-.67-1.17-1.06-2.06-1.68l-1.92-1.54c-.03-.13-.13-.15-.2-.25l5.45-.09,1.88-5.29h0ZM70.85,95.12l.44.92-.8-.52c-1.23-1-2.87-2.31-4.05-2.85-1.2.53-2.77,1.85-4.06,2.83l-.94.56.58-.93,1.42-4.86c-1.06-.69-3.61-2.31-4.24-3.33l5.4.02,1.93-5.3,1.83,5.28h5.33c-.69,1.17-3.15,2.63-4.3,3.36l1.47,4.81ZM155.69,58.19l.42-.87c.69-.1.52-.23.41.49l1.54,5.04,5.46.1c-.95,1.18-2.92,2.14-4.35,3.38l1.31,4.44c.64.71.34-.25.5,1.2l-.74-.62-4.13-2.77c-1.39.79-2.75,1.95-4.12,2.8-.53.57.68.31-.72.47l.5-.54,1.32-5c-1.27-1.25-2.89-1.98-4.27-3.38l5.49-.03,1.38-4.7ZM72.94,57.51l1.76,5.4,5.5.05c-1.05,1.3-2.74,2.03-4.32,3.38l1.55,5.42-4.8-3.19c-.82.86-3.32,2.56-4.36,3.11l1.49-5.39c-1.6-1.35-3.34-2.19-4.18-3.35l5.43-.03,1.92-5.41ZM134.7,53.69c-.67.58.85.33-.87.49l.52-.74,1.21-5.09c-.91-.33-3.6-2.05-4.24-3.03l5.53-.08,1.43-4.85c.4-.59-.51-.74.48-.5l.31.91c1.13,5.68,1.62,4.51,6.89,4.56-1.28,1.35-3.12,2.16-4.35,3.55l1.55,5.12c-1.66-.69-2.81-2.11-4.47-3.03-1.56.76-2.62,1.89-3.99,2.7h0ZM90.16,40.42c.35-.63-.44-.69.45-.56l.33.84,1.28,4.61,5.58.02c-.81,1-3.01,2.54-4.38,3.25l1.55,5.41c-1.21-.56-3.12-2.09-4.46-3-1.8.98-2.71,2.16-4.61,2.92l1.52-5.29c-1.12-.89-3.48-2.14-4.25-3.31l5.49-.02,1.49-4.87ZM114.22,33.77c.39-.62-.6-.62.51-.54l.27.92,1.32,4.37c1.5.56,3.8.14,5.61.39-.72.82-3.49,2.68-4.48,3.18l1.63,5.44c-1.53-.72-3.09-2.14-4.47-2.98-.89.32-3.12,2.02-4.04,2.8l-.96.6c.29-1.37-.14-.55.64-1.22l1.28-4.45c-1.38-.98-3.27-2.18-4.38-3.47l5.58-.03,1.49-5h0ZM4.93,162.54l219.76.04.02-146.65-219.97-.05.19,146.66Z"/>
            <path class="cls-23" d="M224.71,15.93l-.02,146.65-219.76-.04c-.72-.59-.56.77-.62-1.02l.1-145.77c2.52-.75,23.21-.24,27.57-.24h179.33c1.82,0,11.98-.5,13.4.42ZM0,226.78l229.09.02.03-215.42H.03l-.03,215.4h0Z"/>
            <path class="cls-22" d="M4.93,162.54l-.19-146.66,219.97.05c-1.42-.92-11.59-.42-13.4-.42H31.98c-4.35,0-25.05-.51-27.57.24l-.1,145.77c.06,1.79-.1.44.62,1.02Z"/>
            <path class="cls-21" d="M110.24,46.71c-.22,1.07-.2.39.32.63.92-.77,3.15-2.48,4.04-2.8,1.37.84,2.93,2.26,4.47,2.98l-1.63-5.44c1-.5,3.77-2.35,4.48-3.18-1.8-.25-4.11.16-5.61-.39l-1.32-4.37-.78-.37-1.49,5-5.58.03c1.1,1.29,3,2.48,4.38,3.47l-1.28,4.45Z"/>
            <path class="cls-21" d="M134.25,136.62l.4.41c1.32-.77,2.58-2.08,4.04-2.64,1.43.97,2.92,2.31,4.42,3.01l-1.64-5.52c1.65-.76,3.32-2.11,4.47-3.15l-5.4-.07-1.88-5.25c-.99,1.23-1.4,3.47-1.84,5.16l-5.7.14c1.39.93,2.55,2.35,4.36,3.06l-1.23,4.83h0Z"/>
            <path class="cls-21" d="M71.02,62.92l-5.43.03c.84,1.16,2.58,2,4.18,3.35l-1.49,5.39c1.03-.55,3.54-2.25,4.36-3.11l4.8,3.19-1.55-5.42c1.59-1.34,3.27-2.08,4.32-3.38l-5.5-.05-1.76-5.4-1.92,5.41Z"/>
            <path class="cls-21" d="M155.69,58.19l-1.38,4.7-5.49.03c1.38,1.39,3,2.13,4.27,3.38l-1.32,5,.22.07c1.37-.85,2.73-2.01,4.12-2.8l4.13,2.77.24-.57-1.31-4.44c1.43-1.24,3.4-2.19,4.35-3.38l-5.46-.1-1.54-5.04-.83.38h0Z"/>
            <path class="cls-21" d="M90.95,40.7l-.79-.28-1.49,4.87-5.49.02c.77,1.17,3.13,2.42,4.25,3.31l-1.52,5.29c1.9-.76,2.81-1.94,4.61-2.92,1.34.91,3.25,2.45,4.46,3l-1.55-5.41c1.37-.71,3.58-2.25,4.38-3.25l-5.58-.02-1.28-4.61Z"/>
            <path class="cls-21" d="M115.08,130.69l-.81-.48-1.59,4.85h-5.36c.54.89,1.26,1.27,2.18,1.94.66.48,1.38.98,1.97,1.55l-1.5,5.15c1.79-.63,2.82-2.17,4.63-2.92,1.58.84,2.74,2.25,4.49,3.01l-1.57-5.21c.84-.86,1.25-.99,2.14-1.63l2.11-1.87-5.25-.03c-.56-.96-1.22-3.05-1.45-4.36Z"/>
            <path class="cls-21" d="M88.71,128.65l-5.55.03c.88,1.24,3.13,2.38,4.31,3.57l-1.54,5.1c1.41-.56,3.11-2.05,4.59-2.97,1.47.91,3.17,2.41,4.5,2.98l-1.5-5.09c1.26-1.27,3.43-2.28,4.36-3.59h-5.65s-1.58-5.25-1.58-5.25l-1.94,5.22h0Z"/>
            <path class="cls-21" d="M155.69,106.36l-1.39,4.7-5,.47c1.35,1.4,2.16,1.42,3.77,2.94l-1.5,5.27c1.86-.93,2.95-2.03,4.53-2.99,1.67.74,2.85,2.17,4.6,2.95l-1.53-5.21c1.52-1.24,3.13-2.08,4.32-3.4l-5.41-.08-1.57-5.04-.82.38Z"/>
            <path class="cls-21" d="M160.74,86.82l-5.45.09c.07.1.17.12.2.25l1.92,1.54c.89.62,1.36,1.01,2.06,1.68l-1.55,5.22c1.74-.89,2.92-1.97,4.47-2.99,2,.76,2.74,2.12,4.72,2.96l-1.59-5.16c2.33-2.11,2.66-1.65,4.3-3.46l-5.37-.09-1.85-5.33-1.88,5.29h0Z"/>
            <path class="cls-21" d="M62.01,95.13l.37.36c1.29-.98,2.87-2.3,4.06-2.83,1.17.54,2.82,1.85,4.05,2.85l.36-.4-1.47-4.81c1.16-.74,3.61-2.19,4.3-3.36h-5.33s-1.83-5.28-1.83-5.28l-1.93,5.3-5.4-.02c.63,1.02,3.18,2.63,4.24,3.33l-1.42,4.86Z"/>
            <path class="cls-21" d="M134.35,53.44l.35.25c1.37-.81,2.43-1.94,3.99-2.7,1.66.92,2.81,2.34,4.47,3.03l-1.55-5.12c1.23-1.39,3.07-2.2,4.35-3.55-5.27-.05-5.76,1.12-6.89-4.56l-.79-.4-1.43,4.85-5.53.08c.64.98,3.33,2.7,4.24,3.03l-1.21,5.09h0Z"/>
            <path class="cls-21" d="M76.49,119.43c.71.12.49.25.62-.48l-1.21-4.45c1.53-1.13,3.25-2.11,4.28-3.42l-5.42-.07-1.82-5.38-1.87,5.3-5.07.57c1.49,1.47,2.55,1.75,3.79,2.97l-1.49,5.35c1.1-.77,3.58-2.6,4.91-3.12.98,1.1,2.2,1.46,3.27,2.73Z"/>
            <path class="cls-30" d="M76.49,119.43c.62.59-.86.33,1.06.57l-.44-1.05c-.13.74.09.6-.62.48Z"/>
            <path class="cls-24" d="M110.57,47.34c-.53-.24-.54.45-.32-.63-.78.67-.34-.15-.64,1.22l.96-.6h0Z"/>
            <path class="cls-24" d="M160.24,71.34l.74.62c-.16-1.45.13-.48-.5-1.2l-.24.57Z"/>
            <path class="cls-24" d="M155.69,58.19l.83-.38c.11-.72.28-.59-.41-.49l-.42.87Z"/>
            <path class="cls-30" d="M115.08,130.69l-.27-.95c-1.07-.12-.09-.11-.54.48l.81.48Z"/>
            <path class="cls-24" d="M115,34.14l-.27-.92c-1.11-.07-.12-.08-.51.54l.78.37Z"/>
            <path class="cls-30" d="M139.07,40.8l-.31-.91c-.99-.24-.08-.09-.48.5l.79.4Z"/>
            <path class="cls-24" d="M155.69,106.36l.82-.38c.09-.68.25-.55-.4-.46l-.42.84h0Z"/>
            <path class="cls-30" d="M90.95,40.7l-.33-.84c-.9-.12-.1-.06-.45.56l.79.28Z"/>
            <path class="cls-30" d="M134.7,53.69l-.35-.25-.52.74c1.72-.16.21.09.87-.49Z"/>
            <polygon class="cls-30" points="134.65 137.03 134.25 136.62 133.73 137.64 134.65 137.03"/>
            <polygon class="cls-24" points="62.38 95.49 62.01 95.13 61.43 96.05 62.38 95.49"/>
            <polygon class="cls-24" points="70.49 95.52 71.29 96.04 70.85 95.12 70.49 95.52"/>
            <path class="cls-24" d="M151.98,71.37l-.22-.07-.5.54c1.41-.16.2.1.72-.47h0Z"/>
          </g>
          <path class="cls-33" d="M63.83,187.37v-14.96h10.28v2.53h-7.25v3.55h6.27v2.53h-6.27v6.35h-3.03ZM83.73,187.37v-1.62c-.4.58-.92,1.04-1.56,1.38-.64.34-1.32.51-2.04.51s-1.39-.16-1.96-.48c-.58-.32-1-.77-1.26-1.35-.26-.58-.39-1.38-.39-2.4v-6.88h2.86v4.99c0,1.53.05,2.46.16,2.81.1.34.3.62.58.82.28.2.63.3,1.07.3.49,0,.93-.14,1.32-.4.39-.27.66-.6.8-1,.14-.4.22-1.37.22-2.93v-4.58h2.86v10.84h-2.65ZM99.19,187.37h-2.86v-5.52c0-1.17-.06-1.93-.18-2.27-.13-.34-.32-.61-.6-.8-.28-.19-.61-.29-1-.29-.5,0-.95.14-1.35.41-.4.27-.67.63-.82,1.08-.15.45-.22,1.28-.22,2.49v4.9h-2.86v-10.84h2.65v1.59c.95-1.21,2.14-1.82,3.59-1.82.63,0,1.21.11,1.74.34.53.23.93.52,1.19.87.27.36.46.76.56,1.2.11.45.16,1.09.16,1.93v6.73h0ZM112.03,187.37h-2.65v-1.59c-.44.62-.97,1.08-1.57,1.4-.6.31-1.21.47-1.82.47-1.25,0-2.32-.5-3.21-1.51-.89-1.01-1.33-2.41-1.33-4.21s.43-3.24,1.3-4.2c.87-.96,1.96-1.43,3.28-1.43,1.21,0,2.26.5,3.15,1.51v-5.4h2.86v14.96ZM104.39,181.74c0,1.16.16,2,.48,2.52.46.75,1.11,1.13,1.94,1.13.66,0,1.22-.28,1.68-.85.46-.56.69-1.4.69-2.52,0-1.25-.22-2.15-.67-2.7-.45-.55-1.02-.82-1.72-.82s-1.25.27-1.71.81c-.46.54-.69,1.35-.69,2.43h0ZM121.11,183.94l2.86.48c-.37,1.05-.95,1.84-1.74,2.4-.79.55-1.79.82-2.97.82-1.88,0-3.28-.62-4.18-1.85-.71-.99-1.07-2.23-1.07-3.74,0-1.8.47-3.21,1.41-4.22.94-1.02,2.12-1.53,3.56-1.53,1.61,0,2.88.53,3.81,1.6.93,1.07,1.37,2.7,1.33,4.9h-7.16c.02.85.25,1.51.69,1.99.44.47.99.71,1.64.71.45,0,.83-.12,1.13-.37.31-.24.54-.64.69-1.18h0ZM121.28,181.04c-.02-.83-.23-1.47-.64-1.9-.41-.44-.9-.65-1.49-.65-.62,0-1.14.23-1.55.69-.41.46-.61,1.08-.6,1.86h4.27ZM136.41,187.37h-2.65v-1.59c-.44.62-.97,1.08-1.57,1.4-.6.31-1.21.47-1.82.47-1.25,0-2.32-.5-3.21-1.51-.89-1.01-1.33-2.41-1.33-4.21s.43-3.24,1.3-4.2c.87-.96,1.96-1.43,3.28-1.43,1.21,0,2.26.5,3.15,1.51v-5.4h2.86v14.96h0ZM128.76,181.74c0,1.16.16,2,.48,2.52.46.75,1.11,1.13,1.94,1.13.66,0,1.22-.28,1.68-.85.46-.56.69-1.4.69-2.52,0-1.25-.22-2.15-.67-2.7-.45-.55-1.02-.82-1.72-.82s-1.25.27-1.71.81c-.46.54-.69,1.35-.69,2.43h0ZM144.9,187.37v-14.96h2.86v5.4c.89-1.01,1.93-1.51,3.14-1.51,1.32,0,2.41.48,3.27,1.43.86.96,1.29,2.33,1.29,4.13s-.44,3.28-1.32,4.28c-.88,1-1.95,1.5-3.21,1.5-.62,0-1.23-.16-1.83-.48-.6-.32-1.12-.78-1.56-1.39v1.59h-2.65,0ZM147.72,181.74c0,1.12.18,1.96.53,2.5.5.77,1.16,1.15,1.98,1.15.63,0,1.17-.27,1.62-.81.44-.54.67-1.4.67-2.57,0-1.24-.23-2.14-.67-2.69-.45-.55-1.02-.82-1.73-.82s-1.26.27-1.72.8c-.46.54-.69,1.35-.69,2.44ZM156.41,176.53h3.05l2.6,7.69,2.54-7.69h2.97l-3.82,10.44-.69,1.88c-.25.63-.49,1.11-.72,1.44-.23.33-.49.6-.79.81-.3.21-.66.37-1.1.48-.43.11-.92.17-1.47.17s-1.09-.06-1.63-.17l-.25-2.23c.45.09.86.13,1.22.13.67,0,1.16-.2,1.48-.59.32-.39.57-.89.74-1.5l-4.13-10.86h0ZM22.34,199.87v2.28h-1.96v4.39c0,.89.02,1.41.06,1.56.04.15.12.27.26.36.13.09.29.14.48.14.27,0,.65-.09,1.16-.28l.24,2.23c-.67.29-1.42.43-2.26.43-.51,0-.98-.09-1.39-.26-.41-.17-.72-.4-.91-.68-.2-.28-.33-.65-.4-1.12-.06-.33-.09-1.01-.09-2.03v-4.75h-1.32v-2.28h1.32v-2.15l2.86-1.69v3.84h1.96ZM27.16,195.75v5.54c.93-1.1,2.04-1.66,3.34-1.66.66,0,1.26.12,1.8.37.53.25.93.56,1.2.94.27.38.46.8.55,1.26.1.46.15,1.18.15,2.15v6.35h-2.86v-5.72c0-1.14-.06-1.86-.16-2.16-.11-.31-.31-.55-.58-.73-.28-.18-.63-.27-1.05-.27-.48,0-.91.11-1.29.35-.38.23-.65.58-.83,1.04-.18.46-.26,1.15-.26,2.06v5.42h-2.86v-14.96h2.86ZM43.37,207.28l2.86.48c-.36,1.05-.95,1.84-1.74,2.4-.79.55-1.79.82-2.97.82-1.88,0-3.28-.62-4.18-1.85-.71-.99-1.07-2.24-1.07-3.74,0-1.8.47-3.21,1.41-4.22.94-1.02,2.12-1.53,3.56-1.53,1.61,0,2.88.53,3.81,1.6.93,1.06,1.37,2.7,1.33,4.9h-7.16c.02.85.25,1.51.69,1.98.44.47.99.71,1.64.71.45,0,.83-.12,1.13-.37.31-.24.54-.64.69-1.18h0ZM43.54,204.38c-.02-.83-.23-1.47-.64-1.9-.41-.44-.9-.65-1.49-.65-.62,0-1.14.23-1.55.69-.41.46-.61,1.08-.6,1.86h4.27ZM54.54,210.71v-14.96h11.07v2.53h-8.04v3.32h7.48v2.53h-7.48v4.05h8.34v2.53h-11.36ZM75.62,210.71v-1.62c-.4.58-.92,1.04-1.56,1.38-.64.34-1.32.51-2.04.51s-1.39-.16-1.96-.48c-.58-.32-1-.77-1.26-1.35-.26-.58-.39-1.38-.39-2.4v-6.88h2.86v4.99c0,1.53.05,2.46.16,2.81.1.34.3.62.58.82.28.2.63.3,1.07.3.49,0,.93-.14,1.32-.4.39-.27.66-.6.8-1,.14-.4.21-1.37.21-2.93v-4.58h2.86v10.84h-2.65ZM83.95,210.71h-2.86v-10.84h2.65v1.54c.46-.73.87-1.2,1.23-1.43.37-.23.78-.34,1.24-.34.65,0,1.29.18,1.89.54l-.89,2.5c-.48-.31-.93-.47-1.35-.47s-.75.11-1.02.33c-.28.22-.5.62-.66,1.2-.16.58-.24,1.79-.24,3.63v3.34ZM88.68,205.15c0-.96.23-1.88.7-2.77.47-.9,1.14-1.57,2-2.04.86-.47,1.82-.71,2.88-.71,1.64,0,2.98.53,4.03,1.6,1.05,1.07,1.57,2.41,1.57,4.04s-.53,3.01-1.58,4.08c-1.06,1.08-2.39,1.62-3.99,1.62-.99,0-1.94-.23-2.84-.68-.9-.45-1.58-1.11-2.05-1.98-.47-.87-.7-1.93-.7-3.17ZM91.62,205.31c0,1.08.26,1.9.76,2.47.51.57,1.14.86,1.89.86s1.37-.28,1.88-.86c.51-.57.76-1.4.76-2.49s-.25-1.88-.76-2.45c-.5-.57-1.13-.86-1.88-.86s-1.38.28-1.89.86c-.51.57-.76,1.4-.76,2.47ZM102.02,199.87h2.67v1.59c.35-.54.82-.98,1.41-1.32.59-.33,1.25-.5,1.97-.5,1.26,0,2.33.49,3.2,1.48.88.99,1.32,2.36,1.32,4.13s-.44,3.22-1.33,4.23c-.88,1.01-1.96,1.51-3.22,1.51-.6,0-1.14-.12-1.63-.36-.49-.24-1-.64-1.54-1.22v5.42h-2.86v-14.96h0ZM104.84,205.12c0,1.22.24,2.12.73,2.71.48.58,1.07.87,1.76.87s1.22-.27,1.66-.8c.44-.54.66-1.41.66-2.64,0-1.14-.23-1.99-.68-2.54-.45-.55-1.02-.83-1.69-.83s-1.28.27-1.74.81c-.46.54-.69,1.35-.69,2.41ZM121.13,207.28l2.86.48c-.36,1.05-.95,1.84-1.74,2.4-.79.55-1.79.82-2.97.82-1.88,0-3.28-.62-4.18-1.85-.71-.99-1.07-2.24-1.07-3.74,0-1.8.47-3.21,1.41-4.22.94-1.02,2.12-1.53,3.56-1.53,1.61,0,2.88.53,3.81,1.6.93,1.06,1.37,2.7,1.33,4.9h-7.16c.02.85.25,1.51.69,1.98.44.47.99.71,1.64.71.45,0,.83-.12,1.13-.37.31-.24.54-.64.69-1.18h0ZM121.3,204.38c-.02-.83-.23-1.47-.64-1.9-.41-.44-.9-.65-1.49-.65-.62,0-1.14.23-1.55.69-.41.46-.61,1.08-.6,1.86h4.27ZM128.61,203.21l-2.59-.46c.29-1.06.8-1.84,1.51-2.35.71-.51,1.78-.76,3.18-.76,1.28,0,2.23.15,2.86.45.62.3,1.07.69,1.32,1.15s.38,1.32.38,2.56l-.04,3.34c0,.95.05,1.65.14,2.11.09.45.26.94.51,1.45h-2.84c-.07-.19-.17-.47-.28-.84-.04-.17-.08-.28-.1-.33-.49.48-1.01.84-1.57,1.08-.56.24-1.15.36-1.78.36-1.11,0-1.99-.3-2.63-.91-.64-.6-.96-1.37-.96-2.29,0-.61.15-1.16.44-1.64.29-.48.7-.85,1.23-1.1.53-.26,1.29-.48,2.28-.67,1.34-.25,2.27-.49,2.78-.7v-.29c0-.56-.14-.95-.41-1.19-.27-.24-.79-.35-1.54-.35-.51,0-.91.1-1.19.31-.29.2-.52.56-.7,1.07h0ZM132.46,205.53c-.37.12-.95.27-1.74.44-.79.17-1.32.34-1.56.5-.37.27-.56.6-.56,1.01s.15.75.45,1.04c.3.29.68.44,1.14.44.52,0,1.01-.17,1.48-.51.34-.26.57-.58.68-.95.07-.24.11-.71.11-1.4v-.57h0ZM147.96,210.71h-2.86v-5.53c0-1.17-.06-1.92-.18-2.27-.13-.34-.32-.61-.6-.8-.28-.19-.61-.28-1-.28-.5,0-.95.13-1.35.41-.4.27-.67.63-.82,1.08-.15.45-.22,1.28-.22,2.49v4.9h-2.86v-10.84h2.65v1.59c.95-1.21,2.14-1.82,3.59-1.82.63,0,1.22.11,1.74.34.53.23.93.52,1.19.87.27.36.46.75.56,1.2.11.45.16,1.09.16,1.92v6.73h0ZM156.68,195.75h3.03v8.1c0,1.29.04,2.12.11,2.5.13.61.43,1.11.91,1.47.48.37,1.14.56,1.98.56s1.49-.17,1.92-.53c.43-.35.69-.78.78-1.29.09-.51.13-1.36.13-2.54v-8.28h3.03v7.86c0,1.8-.08,3.07-.24,3.81-.16.74-.46,1.37-.9,1.88-.44.51-1.02.92-1.75,1.22-.73.3-1.69.46-2.87.46-1.42,0-2.5-.16-3.24-.49-.73-.33-1.32-.76-1.74-1.29-.43-.53-.71-1.08-.84-1.66-.2-.86-.3-2.12-.3-3.8v-7.99h0ZM181.61,210.71h-2.86v-5.53c0-1.17-.06-1.92-.18-2.27-.13-.34-.32-.61-.6-.8-.28-.19-.61-.28-1-.28-.5,0-.95.13-1.35.41-.4.27-.67.63-.82,1.08-.15.45-.22,1.28-.22,2.49v4.9h-2.86v-10.84h2.65v1.59c.95-1.21,2.14-1.82,3.59-1.82.63,0,1.21.11,1.74.34.53.23.93.52,1.19.87.27.36.46.75.56,1.2.11.45.16,1.09.16,1.92v6.73h0ZM184.51,198.4v-2.65h2.86v2.65h-2.86ZM184.51,210.71v-10.84h2.86v10.84h-2.86ZM189.64,205.15c0-.96.23-1.88.7-2.77.47-.9,1.14-1.57,2-2.04.86-.47,1.82-.71,2.88-.71,1.64,0,2.98.53,4.03,1.6,1.05,1.07,1.57,2.41,1.57,4.04s-.53,3.01-1.58,4.08c-1.06,1.08-2.39,1.62-3.99,1.62-.99,0-1.94-.23-2.84-.68-.9-.45-1.58-1.11-2.05-1.98-.47-.87-.7-1.93-.7-3.17ZM192.59,205.31c0,1.08.25,1.9.76,2.47.51.57,1.14.86,1.89.86s1.37-.28,1.88-.86c.5-.57.76-1.4.76-2.49s-.26-1.88-.76-2.45c-.5-.57-1.13-.86-1.88-.86s-1.38.28-1.89.86c-.51.57-.76,1.4-.76,2.47ZM212.93,210.71h-2.86v-5.53c0-1.17-.06-1.92-.18-2.27-.13-.34-.32-.61-.6-.8-.28-.19-.61-.28-1-.28-.5,0-.95.13-1.35.41-.4.27-.67.63-.82,1.08-.15.45-.22,1.28-.22,2.49v4.9h-2.86v-10.84h2.65v1.59c.95-1.21,2.14-1.82,3.59-1.82.63,0,1.21.11,1.74.34.53.23.93.52,1.19.87.27.36.46.75.56,1.2.11.45.16,1.09.16,1.92v6.73h0Z"/>
        </g>
      </g>
    </g>
  </g>
</svg>