<?xml version="1.0" encoding="UTF-8"?>
<svg id="Layer_2" data-name="Layer 2" xmlns="http://www.w3.org/2000/svg" viewBox="0 0 1502.79 143.37">
  <defs>
    <style>
      .cls-1 {
        fill: #0e4f9f;
      }
    </style>
  </defs>
  <g id="Layer_1-2" data-name="Layer 1">
    <g>
      <g>
        <path class="cls-1" d="M218.86,92.26h-32.39l-6.15,14.5h-11.29l28.36-64.24h11.1l28.08,64.24h-11.56l-6.15-14.5ZM214.73,82.62l-12.11-28.54-12.11,28.54h24.23Z"/>
        <path class="cls-1" d="M255.93,42.52v54.42h27.81v9.82h-38.63V42.52h10.83Z"/>
        <path class="cls-1" d="M345.12,64.45c0,14.5-9.27,22.94-25.42,22.94h-14.77v19.36h-10.83V42.52h25.6c16.15,0,25.42,7.98,25.42,21.93ZM334.75,64.73c0-8.44-5.6-12.48-15.51-12.48h-14.32v25.42h14.32c9.91,0,15.51-4.22,15.51-12.94Z"/>
        <path class="cls-1" d="M396.23,42.52l21.2,42.67,21.11-42.67h12.76v64.24h-10l-.09-47.99-20.28,41.29h-7.07l-20.28-41.29v47.99h-10.19V42.52h12.85Z"/>
        <path class="cls-1" d="M479.09,42.52v64.24h-10.83V42.52h10.83Z"/>
        <path class="cls-1" d="M555.53,74.64c0,18.54-14.04,32.12-33.5,32.12h-26.06V42.52h26.34c19.27,0,33.22,13.49,33.22,32.12ZM544.61,74.73c0-13.12-9.82-22.48-22.48-22.48h-15.33v44.78h15.78c12.48,0,22.02-9.27,22.02-22.3Z"/>
        <path class="cls-1" d="M626.65,74.64c0,18.54-14.04,32.12-33.5,32.12h-26.06V42.52h26.34c19.27,0,33.22,13.49,33.22,32.12ZM615.73,74.73c0-13.12-9.82-22.48-22.48-22.48h-15.33v44.78h15.78c12.48,0,22.02-9.27,22.02-22.3Z"/>
        <path class="cls-1" d="M649.03,42.52v54.42h27.81v9.82h-38.63V42.52h10.83Z"/>
        <path class="cls-1" d="M733.09,42.52v9.73h-35.06v17.44h31.38v9.63h-31.38v17.71h36.16v9.73h-46.98V42.52h45.88Z"/>
        <path class="cls-1" d="M821.27,108.5c-3.58-3.58-6.97-6.79-10-9.82-5.69,5.41-12.3,8.53-19.36,8.53-11.47,0-20.19-7.62-20.19-17.99,0-9.08,6.61-13.95,13.86-17.8-4.22-5.69-6.15-10.28-6.15-14.87,0-8.53,6.7-14.5,16.7-14.5s16.24,5.6,16.24,13.49c0,8.81-7.71,13.4-15.6,17.53,3.49,3.95,7.98,8.54,13.49,13.95,2.2-3.3,4.13-7.16,5.78-11.56l6.88,5.14c-1.93,4.59-4.13,8.72-6.7,12.21l10.46,10.19-5.42,5.51ZM805.49,92.99c-6.42-6.42-11.56-11.65-15.6-16.24-5.32,3.03-9.45,6.42-9.45,11.65,0,6.42,5.23,10.83,11.84,10.83,4.68,0,9.18-2.29,13.21-6.24ZM792.55,67.85c6.24-3.21,11.47-6.52,11.47-12.21,0-4.22-3.03-6.97-7.8-6.97-5.14,0-8.44,3.4-8.44,7.8,0,3.4,1.56,6.97,4.77,11.38Z"/>
        <path class="cls-1" d="M883.58,52.25c-6.33,0-10.46,2.39-10.46,6.7,0,14.04,34.69,6.52,34.6,29.64,0,11.47-10.09,18.54-24.23,18.54-10.09,0-19.64-4.13-26.25-10.19l4.68-9.36c6.61,6.06,14.87,9.36,21.75,9.36,7.53,0,12.02-2.84,12.02-7.8,0-14.32-34.69-6.33-34.69-29.18,0-11.01,9.45-17.89,23.4-17.89,8.35,0,16.52,2.66,22.48,6.61l-4.5,9.54c-6.97-4.22-13.95-5.96-18.81-5.96Z"/>
        <path class="cls-1" d="M963.23,106.76l-21.11-28.36-10.92,12.02v16.33h-10.83V42.52h10.83v33.22l30.65-33.22h12.76l-24.87,27.44,26.52,36.8h-13.03Z"/>
        <path class="cls-1" d="M997.09,42.52v64.24h-10.83V42.52h10.83Z"/>
        <path class="cls-1" d="M1024.8,42.52v54.42h27.81v9.82h-38.63V42.52h10.83Z"/>
        <path class="cls-1" d="M1073.8,42.52v54.42h27.81v9.82h-38.63V42.52h10.83Z"/>
        <path class="cls-1" d="M1168.13,51.88c-12.85,0-22.94,9.91-22.94,22.57s10.09,22.67,22.94,22.67c6.42,0,13.03-2.94,17.89-7.62l6.42,7.16c-6.52,6.42-15.78,10.55-24.87,10.55-18.81,0-33.4-14.22-33.4-32.67s14.77-32.3,33.77-32.3c9.08,0,18.17,3.76,24.41,9.91l-6.33,7.89c-4.68-5.05-11.38-8.17-17.89-8.17Z"/>
        <path class="cls-1" d="M1249.34,42.52v9.73h-35.05v17.44h31.38v9.63h-31.38v17.71h36.16v9.73h-46.98V42.52h45.88Z"/>
        <path class="cls-1" d="M1274.3,42.52l34.41,46.16v-46.16h10.64v64.24h-10.64l-34.23-46.07v46.07h-10.83V42.52h10.64Z"/>
        <path class="cls-1" d="M1380.19,42.52v9.73h-20.37v54.51h-10.83v-54.51h-20.28v-9.73h51.48Z"/>
        <path class="cls-1" d="M1430.2,106.76l-11.75-19.45c-.92.09-1.93.09-2.94.09h-15.23v19.36h-10.83V42.52h26.06c16.43,0,25.88,7.98,25.88,21.93,0,10.28-4.77,17.53-13.31,20.83l14.41,21.47h-12.3ZM1415.52,77.67c9.91,0,15.6-4.22,15.6-12.94s-5.69-12.48-15.6-12.48h-15.23v25.42h15.23Z"/>
        <path class="cls-1" d="M1501.69,42.52v9.73h-35.06v17.44h31.38v9.63h-31.38v17.71h36.16v9.73h-46.98V42.52h45.88Z"/>
      </g>
      <g>
        <path class="cls-1" d="M21.08,132.86c-.16,1.27-1.09,2.15-2.24,2.54-4.76-.23-11.21.84-15.78.13-1.38-.21-2.47-1.22-2.9-2.52l-.16-37.18c.31-2.11,1.42-2.97,3.44-3.26,2.82-.4,11.43-.43,14.25-.06,1.34.18,2.68.91,3.23,2.19l.16,38.16Z"/>
        <path class="cls-1" d="M142.91,107.94c-14.43,9.63-28.05,20.67-42.49,30.24-6.09,4.04-10.11,5.97-17.79,4.89l-47.04-13.89h-10.37v-30.31c2.91-.41,7.35.55,10.05,0,.84-.17,3.45-1.92,4.63-2.39,9.59-3.79,24.68-2.69,31.59,5.73.93,1.14,1.92,3.67,3.09,3.93l23.54.07c8.98.91,9.18,13.26.33,14.37h-31.59c-2.17.61-2.4,3.52-.02,3.83,10.43-.7,21.96.88,32.25,0,7.12-.62,11.44-8.09,9.21-14.7l27.55-14.9c8.5-2.69,14.08,7.54,7.07,13.13Z"/>
        <g>
          <path class="cls-1" d="M126.82,60.89c.84-1.92,1.51-5.53,2.33-6.92.32-.54.46-.64,1.03-.89,3.37-1.48,8.3-1.81,11.82-3.21l-.05-6.17c-.43-.51-11.49-2.39-12.65-3.62-.45-.47-1.66-5.39-2.16-6.61-.65-1.59-2.54-4.18-2.89-5.43-.15-.57-.21-.98.11-1.5l5.69-9.98c.26-.5.08-.72-.17-1.13-.28-.46-3.64-3.64-3.95-3.61-3.34,1.3-6.79,4.37-9.98,5.66-2.25.9-4.63-1.4-6.84-2.35-1.71-.74-6.1-1.68-7.11-2.38-1.07-.74-2.99-10.87-3.76-12.75h-5.98c-.72.47-2.4,11-3.69,12.43-.66.74-5.88,2.11-7.42,2.79-1.8.8-4.36,2.93-6.17,2.46l-10.63-5.86-4.28,4.25c.76,2.02,6.38,9.95,6.22,11.44-.09.81-2.7,5.15-3.26,6.59-.76,1.94-1.14,5.71-3.03,6.53-1.53.67-11.35,2.65-11.51,3.23l.03,6.17c3.45.99,8.04,1.61,11.3,2.89.34.13.53.2.83.44.84.68,2.56,6.78,3.33,8.48.51,1.14,1.91,2.8,2.18,3.9.44,1.78-5.07,9.42-5.94,11.53-.24.34-.13.41.06.69.35.52,3.96,3.97,4.28,3.94l10.12-5.84c1.98-.66,4.14,1.39,6.05,2.2,2.14.92,5.08,1.44,6.92,2.34.67.33,1.09.81,1.39,1.48.69,1.59,2.53,10.78,3.16,11.2l6.03.1c.71-.45,2.45-11.11,3.64-12.31.44-.44,7.06-2.46,8.52-3.12,1.68-.76,3.39-2.74,5.34-1.82l10.41,5.76,4.3-4.25c-.88-2.08-6.41-9.83-6.32-11.47.04-.74,2.2-4.15,2.7-5.3ZM95.2,75.16c-15.64,0-28.32-12.68-28.32-28.32s12.68-28.32,28.32-28.32,28.32,12.68,28.32,28.32-12.68,28.32-28.32,28.32Z"/>
          <path class="cls-1" d="M103.04,40.22c0,4.33-3.51,7.84-7.84,7.84s-7.83-3.51-7.83-7.84,3.51-7.84,7.83-7.84,7.84,3.51,7.84,7.84Z"/>
          <path class="cls-1" d="M107.42,67.98c-8.75,5.07-20.19,4.12-27.87-2.43.84-6.67,6.45-12.67,13.23-13.49,7.35-.89,14.7,2.95,17.23,10.03,1.34,3.77.63,4.02-2.59,5.89Z"/>
        </g>
      </g>
    </g>
  </g>
</svg>