<?xml version="1.0" encoding="UTF-8"?>
<svg xmlns="http://www.w3.org/2000/svg" viewBox="0 0 2592 257.32">
  <defs>
    <style>
      .cls-1 {
        fill: #fff;
      }

      .cls-2 {
        fill: #a81f64;
        mix-blend-mode: multiply;
      }

      .cls-3 {
        isolation: isolate;
      }
    </style>
  </defs>
  <g class="cls-3">
    <g id="Layer_2" data-name="Layer 2">
      <g id="Layer_1-2" data-name="Layer 1">
        <g>
          <rect class="cls-2" width="2592" height="257.32"/>
          <g>
            <g>
              <path class="cls-1" d="M789.33,84.34c0,2.83-.48,5.41-1.43,7.74-.99,2.44-2.3,4.47-3.92,6.1-1.62,1.63-3.67,2.93-6.15,3.92-2.37.95-5,1.43-7.9,1.43h-18.08v-3.13c0-.88.44-1.43,1.33-1.64l.32-.05c.11,0,.22-.02.34-.05.12-.04.27-.07.45-.11l1.59-.26v-27.83l-1.59-.26c-.18-.04-.33-.07-.45-.11-.12-.03-.24-.05-.34-.05l-.32-.05c-.88-.21-1.33-.76-1.33-1.64v-3.13h18.08c2.9,0,5.53.48,7.9,1.43,2.47.99,4.52,2.3,6.15,3.92s2.93,3.64,3.92,6.04c.95,2.33,1.43,4.91,1.43,7.74ZM782.02,84.34c0-2.08-.28-3.96-.85-5.62-.64-1.77-1.43-3.18-2.39-4.24-1.03-1.09-2.3-1.98-3.82-2.65-1.48-.64-3.16-.95-5.04-.95h-6.89v26.98h6.89c1.87,0,3.55-.32,5.04-.95,1.52-.67,2.79-1.55,3.82-2.65.99-1.09,1.78-2.51,2.39-4.24.56-1.66.85-3.55.85-5.67Z"/>
              <path class="cls-1" d="M805.66,100.4v3.13h-14.58v-3.13c0-.88.44-1.43,1.33-1.64l.32-.05.79-.16,1.59-.26v-16.7l-1.59-.27c-.18-.04-.33-.07-.45-.11s-.24-.05-.34-.05l-.32-.05c-.88-.21-1.33-.76-1.33-1.64v-3.13h10.55v21.95l1.59.26c.18.04.33.07.45.11s.24.05.34.05l.32.05c.88.21,1.33.76,1.33,1.64ZM802.27,69.97c-.21.5-.51.94-.9,1.33-.42.42-.87.72-1.33.9-.53.21-1.08.32-1.64.32s-1.11-.11-1.64-.32c-.42-.18-.85-.48-1.27-.9-.39-.39-.69-.83-.9-1.33-.21-.49-.32-1.02-.32-1.59s.11-1.11.32-1.64c.18-.46.48-.9.9-1.33.39-.39.81-.67,1.27-.85.64-.25,1.18-.37,1.64-.37s1.01.12,1.64.37c.53.21.97.5,1.33.85.42.42.72.87.9,1.33.25.6.37,1.15.37,1.64s-.12,1.03-.37,1.59Z"/>
              <path class="cls-1" d="M828.93,76.76l-.85,4.93c-.04.32-.14.53-.32.64-.21.14-.46.21-.74.21-.25,0-.6-.05-1.06-.16-.64-.14-1.25-.21-1.86-.21-1.38,0-2.54.37-3.5,1.11-.88.67-1.7,1.79-2.44,3.34v11.66l2.65.48c.88.21,1.33.76,1.33,1.64v3.13h-14.52v-3.13c0-.88.44-1.43,1.33-1.64l2.65-.48v-16.7l-2.65-.48c-.88-.21-1.33-.76-1.33-1.64v-3.13h7.84c.67,0,1.13.12,1.38.37.25.25.42.67.53,1.27l.42,3.29c.95-1.73,2.08-3.06,3.39-3.98,1.34-.95,2.81-1.43,4.4-1.43,1.38,0,2.49.3,3.34.9Z"/>
              <path class="cls-1" d="M848.28,76.7c1.34.5,2.58,1.31,3.71,2.44,1.02,1.03,1.84,2.32,2.44,3.87.6,1.59.9,3.32.9,5.19,0,.42-.04.85-.11,1.27-.07.39-.14.64-.21.74-.07.18-.23.32-.48.42-.14.07-.39.11-.74.11h-16.8c.21,2.79.97,4.84,2.28,6.15,1.31,1.31,3.04,1.96,5.2,1.96,1.09,0,2-.12,2.7-.37.78-.25,1.45-.53,2.01-.85.25-.14.5-.27.77-.4.26-.12.52-.26.77-.4.39-.25.79-.37,1.22-.37.28,0,.53.05.74.16.18.07.33.21.48.42l1.91,2.39c-.81.92-1.62,1.64-2.44,2.17-.95.6-1.89,1.06-2.81,1.38-.88.28-1.89.51-3.02.69-.88.14-1.87.21-2.97.21-1.94,0-3.69-.3-5.25-.9-1.56-.6-2.97-1.54-4.24-2.81-1.2-1.2-2.16-2.72-2.86-4.56-.67-1.77-1.01-3.87-1.01-6.31,0-1.77.3-3.5.9-5.19.56-1.59,1.43-3.02,2.6-4.29,1.09-1.2,2.46-2.15,4.08-2.86,1.62-.71,3.46-1.06,5.51-1.06,1.73,0,3.3.26,4.72.79ZM839.21,82.22c-1.06,1.06-1.75,2.58-2.07,4.56h12.3c0-.74-.12-1.54-.37-2.39-.21-.67-.57-1.32-1.06-1.96-.46-.56-1.06-1.01-1.8-1.33-.81-.35-1.66-.53-2.54-.53-1.87,0-3.36.55-4.45,1.64Z"/>
              <path class="cls-1" d="M877.48,101.62c-.71.46-1.59.92-2.65,1.38-.78.28-1.71.51-2.81.69-.85.14-1.82.21-2.92.21-1.73,0-3.3-.3-4.72-.9-1.48-.64-2.77-1.55-3.87-2.76-1.17-1.27-2.05-2.74-2.65-4.4-.64-1.77-.95-3.76-.95-5.99,0-2.01.28-3.85.85-5.51.6-1.7,1.45-3.18,2.54-4.45,1.09-1.24,2.47-2.21,4.13-2.91,1.7-.71,3.59-1.06,5.67-1.06,2.26,0,5.12.65,8.59,1.96l-.05,8.38h-3.02c-.64,0-1.04-.34-1.22-1.01l-.42-3.82c-1.31-.35-2.47-.53-3.5-.53-1.17,0-2.17.21-3.02.64-.88.42-1.59,1.01-2.12,1.75-.64.88-1.08,1.84-1.32,2.86-.28,1.2-.42,2.44-.42,3.71,0,1.45.16,2.74.48,3.87.32,1.17.76,2.12,1.33,2.86.6.74,1.31,1.33,2.12,1.75.88.39,1.82.58,2.81.58,1.09,0,1.94-.12,2.54-.37.78-.32,1.33-.6,1.64-.85.18-.14.36-.27.56-.4.19-.12.4-.27.61-.45.28-.25.64-.37,1.06-.37.57,0,.97.19,1.22.58l1.86,2.39c-.85.95-1.63,1.68-2.33,2.17Z"/>
              <path class="cls-1" d="M887.08,101.93c-1.27-1.34-1.91-3.18-1.91-5.51v-15.16h-2.76c-.28,0-.58-.12-.9-.37-.28-.21-.42-.55-.42-1.01v-2.65l4.4-.69,1.38-7.42c.03-.32.19-.58.48-.79.28-.21.62-.32,1.01-.32h3.39v8.59h7.16v4.66h-7.16v14.74c0,.81.21,1.47.64,1.96.42.46.99.69,1.7.69.49,0,.83-.04,1.01-.11l.69-.32.58-.32c.11-.07.25-.11.42-.11.28,0,.46.04.53.11l.37.42,1.96,3.18c-.92.74-2.01,1.34-3.29,1.8-1.2.42-2.47.64-3.82.64-2.37,0-4.19-.67-5.46-2.01Z"/>
              <path class="cls-1" d="M920.1,76.92c1.7.67,3.11,1.59,4.24,2.76,1.13,1.17,2.01,2.63,2.65,4.4.64,1.73.95,3.66.95,5.78s-.32,4.06-.95,5.83c-.67,1.8-1.55,3.29-2.65,4.45-1.17,1.24-2.58,2.17-4.24,2.81-1.63.64-3.46.95-5.51.95s-3.91-.32-5.57-.95c-1.66-.64-3.07-1.57-4.24-2.81-1.24-1.27-2.16-2.76-2.76-4.45-.64-1.77-.95-3.71-.95-5.83s.32-4.05.95-5.78c.6-1.62,1.52-3.09,2.76-4.4,1.13-1.17,2.54-2.08,4.24-2.76,1.73-.67,3.59-1.01,5.57-1.01s3.78.34,5.51,1.01ZM919.57,96.58c1.1-1.59,1.64-3.82,1.64-6.68s-.55-5.09-1.64-6.68c-1.06-1.55-2.72-2.33-4.98-2.33s-3.96.78-5.09,2.33c-1.13,1.56-1.7,3.8-1.7,6.73s.56,5.07,1.7,6.62c1.1,1.52,2.79,2.28,5.09,2.28s3.92-.76,4.98-2.28Z"/>
              <path class="cls-1" d="M951.16,76.76l-.85,4.93c-.04.32-.14.53-.32.64-.21.14-.46.21-.74.21-.25,0-.6-.05-1.06-.16-.64-.14-1.25-.21-1.86-.21-1.38,0-2.54.37-3.5,1.11-.88.67-1.7,1.79-2.44,3.34v11.66l2.65.48c.88.21,1.33.76,1.33,1.64v3.13h-14.52v-3.13c0-.88.44-1.43,1.33-1.64l2.65-.48v-16.7l-2.65-.48c-.88-.21-1.33-.76-1.33-1.64v-3.13h7.84c.67,0,1.13.12,1.38.37.25.25.42.67.53,1.27l.42,3.29c.95-1.73,2.08-3.06,3.39-3.98,1.34-.95,2.81-1.43,4.4-1.43,1.38,0,2.49.3,3.34.9Z"/>
              <path class="cls-1" d="M978.57,100.34v3.13h-6.25c-.67,0-1.17-.09-1.48-.26-.35-.14-.62-.53-.79-1.17l-.58-1.91c-.71.67-1.38,1.22-2.01,1.64-.5.35-1.18.74-2.07,1.17-.64.28-1.38.51-2.23.69-.88.18-1.77.26-2.65.26-1.17,0-2.23-.16-3.18-.48-1.03-.35-1.85-.81-2.49-1.38-.74-.67-1.29-1.45-1.64-2.33-.39-.95-.58-2.01-.58-3.18,0-1.06.26-2.08.79-3.07.53-1.02,1.43-1.93,2.7-2.7,1.34-.85,3-1.52,4.98-2.01,2.08-.53,4.68-.8,7.79-.8v-1.59c0-1.77-.39-3.13-1.17-4.08-.74-.88-1.86-1.33-3.34-1.33-1.13,0-2.01.12-2.65.37-.81.32-1.43.6-1.86.85l-1.43.8c-.39.25-.87.37-1.43.37-.46,0-.85-.11-1.17-.32-.21-.14-.46-.42-.74-.85l-1.22-2.07c3.18-2.9,6.94-4.35,11.29-4.35,1.59,0,3.02.26,4.29.79,1.24.53,2.28,1.25,3.13,2.17.95,1.1,1.62,2.21,2.01,3.34.42,1.27.64,2.69.64,4.24v12.03l1.43.26.58.11c.88.21,1.33.76,1.33,1.64ZM964.1,92.29c-1.31.28-2.35.6-3.13.95-.78.35-1.33.78-1.64,1.27-.32.46-.48,1.01-.48,1.64,0,1.2.33,2.03,1.01,2.49.71.49,1.59.74,2.65.74.67,0,1.29-.05,1.85-.16.6-.11,1.15-.3,1.64-.58.64-.35,1.11-.65,1.43-.9.49-.39.97-.81,1.43-1.27v-4.56c-1.98,0-3.57.12-4.77.37Z"/>
              <path class="cls-1" d="M986.15,101.93c-1.27-1.34-1.91-3.18-1.91-5.51v-15.16h-2.76c-.28,0-.58-.12-.9-.37-.28-.21-.42-.55-.42-1.01v-2.65l4.4-.69,1.38-7.42c.03-.32.19-.58.48-.79.28-.21.62-.32,1.01-.32h3.39v8.59h7.16v4.66h-7.16v14.74c0,.81.21,1.47.64,1.96.42.46.99.69,1.7.69.49,0,.83-.04,1.01-.11l.69-.32.58-.32c.11-.07.25-.11.42-.11.28,0,.46.04.53.11l.37.42,1.96,3.18c-.92.74-2.01,1.34-3.29,1.8-1.2.42-2.47.64-3.82.64-2.37,0-4.19-.67-5.46-2.01Z"/>
              <path class="cls-1" d="M1017.95,76.7c1.34.5,2.58,1.31,3.71,2.44,1.02,1.03,1.84,2.32,2.44,3.87.6,1.59.9,3.32.9,5.19,0,.42-.04.85-.11,1.27-.07.39-.14.64-.21.74-.07.18-.23.32-.48.42-.14.07-.39.11-.74.11h-16.8c.21,2.79.97,4.84,2.28,6.15,1.31,1.31,3.04,1.96,5.2,1.96,1.09,0,2-.12,2.7-.37.78-.25,1.45-.53,2.01-.85.25-.14.5-.27.77-.4.26-.12.52-.26.77-.4.39-.25.79-.37,1.22-.37.28,0,.53.05.74.16.18.07.33.21.48.42l1.91,2.39c-.81.92-1.62,1.64-2.44,2.17-.95.6-1.89,1.06-2.81,1.38-.88.28-1.89.51-3.02.69-.88.14-1.87.21-2.97.21-1.94,0-3.69-.3-5.25-.9-1.56-.6-2.97-1.54-4.24-2.81-1.2-1.2-2.16-2.72-2.86-4.56-.67-1.77-1.01-3.87-1.01-6.31,0-1.77.3-3.5.9-5.19.56-1.59,1.43-3.02,2.6-4.29,1.09-1.2,2.46-2.15,4.08-2.86,1.62-.71,3.46-1.06,5.51-1.06,1.73,0,3.3.26,4.72.79ZM1008.89,82.22c-1.06,1.06-1.75,2.58-2.07,4.56h12.3c0-.74-.12-1.54-.37-2.39-.21-.67-.57-1.32-1.06-1.96-.46-.56-1.06-1.01-1.8-1.33-.81-.35-1.66-.53-2.54-.53-1.87,0-3.36.55-4.45,1.64Z"/>
              <path class="cls-1" d="M1057.86,76.92c1.7.67,3.11,1.59,4.24,2.76,1.13,1.17,2.01,2.63,2.65,4.4.64,1.73.95,3.66.95,5.78s-.32,4.06-.95,5.83c-.67,1.8-1.55,3.29-2.65,4.45-1.17,1.24-2.58,2.17-4.24,2.81-1.63.64-3.46.95-5.51.95s-3.91-.32-5.57-.95c-1.66-.64-3.07-1.57-4.24-2.81-1.24-1.27-2.16-2.76-2.76-4.45-.64-1.77-.95-3.71-.95-5.83s.32-4.05.95-5.78c.6-1.62,1.52-3.09,2.76-4.4,1.13-1.17,2.54-2.08,4.24-2.76,1.73-.67,3.59-1.01,5.57-1.01s3.78.34,5.51,1.01ZM1057.33,96.58c1.1-1.59,1.64-3.82,1.64-6.68s-.55-5.09-1.64-6.68c-1.06-1.55-2.72-2.33-4.98-2.33s-3.96.78-5.09,2.33c-1.13,1.56-1.7,3.8-1.7,6.73s.56,5.07,1.7,6.62c1.1,1.52,2.79,2.28,5.09,2.28s3.92-.76,4.98-2.28Z"/>
              <path class="cls-1" d="M1077.85,74.74v1.8h7.1v4.67h-6.84v17.07l1.59.26c.18.04.34.07.5.11s.31.05.45.05l.42.05c.88.21,1.33.76,1.33,1.64v3.13h-14.89v-3.13c0-.88.44-1.43,1.33-1.64.14,0,.26-.02.37-.05l.79-.16,1.54-.26v-17.02l-2.33-.37c-.57-.11-.99-.28-1.27-.53-.28-.25-.42-.62-.42-1.11v-2.65h4.03v-2.01c0-1.62.23-3.02.69-4.19.53-1.34,1.2-2.4,2.01-3.18.92-.85,1.98-1.5,3.18-1.96,1.24-.46,2.65-.69,4.24-.69,1.27,0,2.44.16,3.5.48l-.11,3.29c-.04.53-.28.85-.74.95-.57.14-1.08.21-1.54.21-.85,0-1.54.07-2.07.21-.57.14-1.08.44-1.54.9-.42.42-.74.97-.95,1.64-.25.81-.37,1.64-.37,2.49Z"/>
              <path class="cls-1" d="M1127.57,75.27h-3.07c-.64,0-1.04-.33-1.22-1.01-.18-1.38-.3-2.51-.37-3.39h-12.35v10.6h12.99v5.51h-12.99v10.81h12.35c.07-.88.19-2.01.37-3.39.18-.67.58-1.01,1.22-1.01h3.07v10.12h-28.2v-3.13c0-.88.44-1.43,1.33-1.64l.32-.05c.11,0,.22-.02.34-.05.12-.04.27-.07.45-.11l1.59-.26v-27.83l-1.59-.26c-.18-.04-.33-.07-.45-.11-.12-.03-.24-.05-.34-.05l-.32-.05c-.88-.21-1.33-.76-1.33-1.64v-3.13h28.2v10.07Z"/>
              <path class="cls-1" d="M1150.52,103.42c-.39,0-.74-.11-1.06-.32-.28-.18-.48-.48-.58-.9l-.53-2.49c-1.06,1.2-2.31,2.21-3.76,3.02-1.41.78-3.09,1.17-5.04,1.17-1.52,0-2.86-.3-4.03-.9-1.24-.64-2.3-1.54-3.18-2.7-.88-1.13-1.57-2.58-2.07-4.35-.5-1.8-.74-3.78-.74-5.94,0-2.01.27-3.89.79-5.62.5-1.62,1.29-3.13,2.39-4.51.95-1.2,2.17-2.19,3.66-2.97,1.41-.74,3.02-1.11,4.82-1.11,1.52,0,2.83.25,3.92.74,1.17.53,2.12,1.17,2.86,1.91v-9.06l-1.54-.27c-.18-.04-.33-.07-.45-.11-.12-.04-.24-.05-.34-.05l-.32-.05c-.88-.21-1.33-.76-1.33-1.64v-3.13h10.55v34.08l1.38.21.69.16.32.05c.88.21,1.33.76,1.33,1.64v3.13h-7.74ZM1145.59,81.37c-.95-.39-1.91-.58-2.86-.58s-1.8.19-2.65.58c-.78.35-1.47.92-2.07,1.7-.53.74-.95,1.7-1.27,2.86-.28,1.03-.42,2.39-.42,4.08s.12,3.06.37,4.08c.25,1.06.62,1.94,1.11,2.65.49.74,1.06,1.25,1.7,1.54.67.32,1.45.48,2.33.48,1.41,0,2.58-.28,3.5-.85.99-.6,1.89-1.41,2.7-2.44v-12.19c-.71-.88-1.52-1.52-2.44-1.91Z"/>
              <path class="cls-1" d="M1191.49,100.4v3.13h-8c-.81,0-1.36-.41-1.64-1.22l-.48-2.17c-.6.6-1.18,1.13-1.75,1.59-.53.42-1.17.81-1.91,1.17-.71.32-1.45.58-2.23.79-.88.18-1.71.26-2.49.26-1.45,0-2.77-.25-3.98-.74-1.03-.42-1.98-1.15-2.86-2.17-.71-.81-1.29-1.89-1.75-3.23-.39-1.34-.58-2.74-.58-4.19v-12.03l-2.7-.48c-.88-.21-1.33-.76-1.33-1.64v-3.13h10.55v17.28c0,1.63.39,2.92,1.17,3.87.74.88,1.89,1.33,3.45,1.33,1.06,0,2.12-.25,3.18-.74.95-.46,1.89-1.15,2.81-2.07v-14.42c-.99-.18-1.64-.29-1.96-.34-.32-.05-.55-.1-.69-.13-.88-.21-1.33-.76-1.33-1.64v-3.13h10.55v21.95l2.65.48c.88.21,1.33.76,1.33,1.64Z"/>
              <path class="cls-1" d="M1213.86,101.62c-.71.46-1.59.92-2.65,1.38-.78.28-1.71.51-2.81.69-.85.14-1.82.21-2.92.21-1.73,0-3.3-.3-4.72-.9-1.48-.64-2.77-1.55-3.87-2.76-1.17-1.27-2.05-2.74-2.65-4.4-.64-1.77-.95-3.76-.95-5.99,0-2.01.28-3.85.85-5.51.6-1.7,1.45-3.18,2.54-4.45,1.09-1.24,2.47-2.21,4.13-2.91,1.7-.71,3.59-1.06,5.67-1.06,2.26,0,5.12.65,8.59,1.96l-.05,8.38h-3.02c-.64,0-1.04-.34-1.22-1.01l-.42-3.82c-1.31-.35-2.47-.53-3.5-.53-1.17,0-2.17.21-3.02.64-.88.42-1.59,1.01-2.12,1.75-.64.88-1.08,1.84-1.32,2.86-.28,1.2-.42,2.44-.42,3.71,0,1.45.16,2.74.48,3.87.32,1.17.76,2.12,1.33,2.86.6.74,1.31,1.33,2.12,1.75.88.39,1.82.58,2.81.58,1.09,0,1.94-.12,2.54-.37.78-.32,1.33-.6,1.64-.85.18-.14.36-.27.56-.4.19-.12.4-.27.61-.45.28-.25.64-.37,1.06-.37.57,0,.97.19,1.22.58l1.86,2.39c-.85.95-1.63,1.68-2.33,2.17Z"/>
              <path class="cls-1" d="M1243.49,100.34v3.13h-6.25c-.67,0-1.17-.09-1.48-.26-.35-.14-.62-.53-.79-1.17l-.58-1.91c-.71.67-1.38,1.22-2.01,1.64-.5.35-1.18.74-2.07,1.17-.64.28-1.38.51-2.23.69-.88.18-1.77.26-2.65.26-1.17,0-2.23-.16-3.18-.48-1.03-.35-1.85-.81-2.49-1.38-.74-.67-1.29-1.45-1.64-2.33-.39-.95-.58-2.01-.58-3.18,0-1.06.26-2.08.79-3.07.53-1.02,1.43-1.93,2.7-2.7,1.34-.85,3-1.52,4.98-2.01,2.08-.53,4.68-.8,7.79-.8v-1.59c0-1.77-.39-3.13-1.17-4.08-.74-.88-1.86-1.33-3.34-1.33-1.13,0-2.01.12-2.65.37-.81.32-1.43.6-1.86.85l-1.43.8c-.39.25-.87.37-1.43.37-.46,0-.85-.11-1.17-.32-.21-.14-.46-.42-.74-.85l-1.22-2.07c3.18-2.9,6.94-4.35,11.29-4.35,1.59,0,3.02.26,4.29.79,1.24.53,2.28,1.25,3.13,2.17.95,1.1,1.62,2.21,2.01,3.34.42,1.27.64,2.69.64,4.24v12.03l1.43.26.58.11c.88.21,1.33.76,1.33,1.64ZM1229.02,92.29c-1.31.28-2.35.6-3.13.95-.78.35-1.33.78-1.64,1.27-.32.46-.48,1.01-.48,1.64,0,1.2.33,2.03,1.01,2.49.71.49,1.59.74,2.65.74.67,0,1.29-.05,1.85-.16.6-.11,1.15-.3,1.64-.58.64-.35,1.11-.65,1.43-.9.49-.39.97-.81,1.43-1.27v-4.56c-1.98,0-3.57.12-4.77.37Z"/>
              <path class="cls-1" d="M1251.07,101.93c-1.27-1.34-1.91-3.18-1.91-5.51v-15.16h-2.76c-.28,0-.58-.12-.9-.37-.28-.21-.42-.55-.42-1.01v-2.65l4.4-.69,1.38-7.42c.03-.32.19-.58.48-.79.28-.21.62-.32,1.01-.32h3.39v8.59h7.16v4.66h-7.16v14.74c0,.81.21,1.47.64,1.96.42.46.99.69,1.7.69.49,0,.83-.04,1.01-.11l.69-.32.58-.32c.11-.07.25-.11.42-.11.28,0,.46.04.53.11l.37.42,1.96,3.18c-.92.74-2.01,1.34-3.29,1.8-1.2.42-2.47.64-3.82.64-2.37,0-4.19-.67-5.46-2.01Z"/>
              <path class="cls-1" d="M1279.8,100.4v3.13h-14.58v-3.13c0-.88.44-1.43,1.33-1.64l.32-.05.79-.16,1.59-.26v-16.7l-1.59-.27c-.18-.04-.33-.07-.45-.11s-.24-.05-.34-.05l-.32-.05c-.88-.21-1.33-.76-1.33-1.64v-3.13h10.55v21.95l1.59.26c.18.04.33.07.45.11s.24.05.34.05l.32.05c.88.21,1.33.76,1.33,1.64ZM1276.41,69.97c-.21.5-.51.94-.9,1.33-.42.42-.87.72-1.33.9-.53.21-1.08.32-1.64.32s-1.11-.11-1.64-.32c-.42-.18-.85-.48-1.27-.9-.39-.39-.69-.83-.9-1.33-.21-.49-.32-1.02-.32-1.59s.11-1.11.32-1.64c.18-.46.48-.9.9-1.33.39-.39.81-.67,1.27-.85.64-.25,1.18-.37,1.64-.37s1.01.12,1.64.37c.53.21.97.5,1.33.85.42.42.72.87.9,1.33.25.6.37,1.15.37,1.64s-.12,1.03-.37,1.59Z"/>
              <path class="cls-1" d="M1300.53,76.92c1.7.67,3.11,1.59,4.24,2.76,1.13,1.17,2.01,2.63,2.65,4.4.64,1.73.95,3.66.95,5.78s-.32,4.06-.95,5.83c-.67,1.8-1.55,3.29-2.65,4.45-1.17,1.24-2.58,2.17-4.24,2.81-1.63.64-3.46.95-5.51.95s-3.91-.32-5.57-.95c-1.66-.64-3.07-1.57-4.24-2.81-1.24-1.27-2.16-2.76-2.76-4.45-.64-1.77-.95-3.71-.95-5.83s.32-4.05.95-5.78c.6-1.62,1.52-3.09,2.76-4.4,1.13-1.17,2.54-2.08,4.24-2.76,1.73-.67,3.59-1.01,5.57-1.01s3.78.34,5.51,1.01ZM1300,96.58c1.1-1.59,1.64-3.82,1.64-6.68s-.55-5.09-1.64-6.68c-1.06-1.55-2.72-2.33-4.98-2.33s-3.96.78-5.09,2.33c-1.13,1.56-1.7,3.8-1.7,6.73s.56,5.07,1.7,6.62c1.1,1.52,2.79,2.28,5.09,2.28s3.92-.76,4.98-2.28Z"/>
              <path class="cls-1" d="M1341.98,100.4v3.13h-10.55v-17.28c0-1.62-.39-2.92-1.17-3.87-.74-.92-1.89-1.38-3.45-1.38-1.13,0-2.19.27-3.18.79-1.06.57-2,1.26-2.81,2.07v14.42l1.54.26.79.16.32.05c.88.21,1.33.76,1.33,1.64v3.13h-14.52v-3.13c0-.88.44-1.43,1.33-1.64l.32-.05.79-.16,1.54-.26v-16.7l-1.54-.27c-.18-.04-.33-.07-.45-.11-.12-.04-.24-.05-.34-.05l-.32-.05c-.88-.21-1.33-.76-1.33-1.64v-3.13h8c.81,0,1.36.41,1.64,1.22l.48,2.12c.49-.57,1.06-1.08,1.7-1.54.49-.39,1.15-.78,1.96-1.17.92-.42,1.64-.69,2.17-.8.88-.18,1.73-.26,2.54-.26,1.55,0,2.88.25,3.98.74,1.02.42,1.98,1.13,2.86,2.12.74.88,1.33,1.98,1.75,3.29.39,1.17.58,2.56.58,4.19v12.03l1.59.26c.18.04.33.07.45.11.12.04.24.05.34.05l.32.05c.88.21,1.33.76,1.33,1.64Z"/>
              <path class="cls-1" d="M1381.2,91.55c0,1.63-.3,3.23-.9,4.82-.6,1.55-1.47,2.88-2.6,3.97-1.13,1.13-2.53,2.01-4.19,2.65-1.62.64-3.5.95-5.62.95h-.79c-3.36,0-7.02-.67-10.97-2.01v-9.86h3.02c.67,0,1.08.32,1.22.95.11.46.27,1.93.48,4.4,1.48.46,3.9.69,7.26.69,2.01,0,3.59-.48,4.72-1.43,1.09-.95,1.64-2.33,1.64-4.13,0-.99-.25-1.82-.74-2.49-.46-.64-1.13-1.17-2.01-1.59-.88-.46-1.82-.83-2.81-1.11l-1.17-.32-2.07-.64c-1.06-.35-2.14-.78-3.23-1.27-.99-.46-1.94-1.11-2.86-1.96-.85-.78-1.5-1.77-1.96-2.97-.53-1.31-.79-2.77-.79-4.4,0-1.45.28-2.81.85-4.08.53-1.34,1.34-2.53,2.44-3.55,1.02-.95,2.33-1.77,3.92-2.44,1.55-.64,3.34-.95,5.35-.95,3.71,0,7.37.72,10.97,2.17v9.81h-3.02c-.64,0-1.04-.33-1.22-1.01-.11-.5-.26-1.93-.48-4.29-1.27-.56-3.34-.85-6.2-.85-.95,0-1.8.11-2.54.32-.81.28-1.43.62-1.86,1.01-.53.46-.92.97-1.17,1.54-.25.53-.37,1.18-.37,1.96,0,.85.26,1.59.79,2.23s1.18,1.15,1.96,1.54c1.02.5,1.98.88,2.86,1.17.35.11,1.43.46,3.23,1.06.74.25,1.82.69,3.23,1.33,1.06.46,2.01,1.1,2.86,1.91.92.85,1.59,1.79,2.01,2.81.49,1.03.74,2.39.74,4.08Z"/>
              <path class="cls-1" d="M1403.31,101.62c-.71.46-1.59.92-2.65,1.38-.78.28-1.71.51-2.81.69-.85.14-1.82.21-2.92.21-1.73,0-3.3-.3-4.72-.9-1.48-.64-2.77-1.55-3.87-2.76-1.17-1.27-2.05-2.74-2.65-4.4-.64-1.77-.95-3.76-.95-5.99,0-2.01.28-3.85.85-5.51.6-1.7,1.45-3.18,2.54-4.45,1.09-1.24,2.47-2.21,4.13-2.91,1.7-.71,3.59-1.06,5.67-1.06,2.26,0,5.12.65,8.59,1.96l-.05,8.38h-3.02c-.64,0-1.04-.34-1.22-1.01l-.42-3.82c-1.31-.35-2.47-.53-3.5-.53-1.17,0-2.17.21-3.02.64-.88.42-1.59,1.01-2.12,1.75-.64.88-1.08,1.84-1.32,2.86-.28,1.2-.42,2.44-.42,3.71,0,1.45.16,2.74.48,3.87.32,1.17.76,2.12,1.33,2.86.6.74,1.31,1.33,2.12,1.75.88.39,1.82.58,2.81.58,1.09,0,1.94-.12,2.54-.37.78-.32,1.33-.6,1.64-.85.18-.14.36-.27.56-.4.19-.12.4-.27.61-.45.28-.25.64-.37,1.06-.37.57,0,.97.19,1.22.58l1.86,2.39c-.85.95-1.63,1.68-2.33,2.17Z"/>
              <path class="cls-1" d="M1438.98,100.4v3.13h-10.55v-17.28c0-1.7-.39-2.99-1.17-3.87-.74-.92-1.89-1.38-3.45-1.38-1.1,0-2.16.27-3.18.79-1.06.57-2,1.26-2.81,2.07v14.42l1.59.26c.18.04.33.07.45.11s.24.05.34.05l.32.05c.88.21,1.33.76,1.33,1.64v3.13h-14.58v-3.13c0-.88.44-1.43,1.33-1.64l.32-.05c.11,0,.22-.02.34-.05.12-.04.27-.07.45-.11l1.59-.26v-28.89l-1.59-.27c-.18-.04-.33-.07-.45-.11-.12-.04-.24-.05-.34-.05l-.32-.05c-.88-.21-1.33-.76-1.33-1.64v-3.13h10.55v15.16c1.02-.96,2.19-1.77,3.5-2.44,1.27-.64,2.77-.95,4.51-.95,1.41,0,2.72.25,3.92.74,1.03.42,1.98,1.13,2.86,2.12.74.88,1.33,1.98,1.75,3.29.42,1.45.64,2.83.64,4.13v12.09l1.54.26.79.16.32.05c.88.21,1.33.76,1.33,1.64Z"/>
              <path class="cls-1" d="M1459.76,76.92c1.7.67,3.11,1.59,4.24,2.76,1.13,1.17,2.01,2.63,2.65,4.4.64,1.73.95,3.66.95,5.78s-.32,4.06-.95,5.83c-.67,1.8-1.55,3.29-2.65,4.45-1.17,1.24-2.58,2.17-4.24,2.81-1.63.64-3.46.95-5.51.95s-3.91-.32-5.57-.95c-1.66-.64-3.07-1.57-4.24-2.81-1.24-1.27-2.16-2.76-2.76-4.45-.64-1.77-.95-3.71-.95-5.83s.32-4.05.95-5.78c.6-1.62,1.52-3.09,2.76-4.4,1.13-1.17,2.54-2.08,4.24-2.76,1.73-.67,3.59-1.01,5.57-1.01s3.78.34,5.51,1.01ZM1459.23,96.58c1.1-1.59,1.64-3.82,1.64-6.68s-.55-5.09-1.64-6.68c-1.06-1.55-2.72-2.33-4.98-2.33s-3.96.78-5.09,2.33c-1.13,1.56-1.7,3.8-1.7,6.73s.56,5.07,1.7,6.62c1.1,1.52,2.79,2.28,5.09,2.28s3.92-.76,4.98-2.28Z"/>
              <path class="cls-1" d="M1488.28,76.92c1.7.67,3.11,1.59,4.24,2.76,1.13,1.17,2.01,2.63,2.65,4.4.64,1.73.95,3.66.95,5.78s-.32,4.06-.95,5.83c-.67,1.8-1.55,3.29-2.65,4.45-1.17,1.24-2.58,2.17-4.24,2.81-1.63.64-3.46.95-5.51.95s-3.91-.32-5.57-.95c-1.66-.64-3.07-1.57-4.24-2.81-1.24-1.27-2.16-2.76-2.76-4.45-.64-1.77-.95-3.71-.95-5.83s.32-4.05.95-5.78c.6-1.62,1.52-3.09,2.76-4.4,1.13-1.17,2.54-2.08,4.24-2.76,1.73-.67,3.59-1.01,5.57-1.01s3.78.34,5.51,1.01ZM1487.75,96.58c1.1-1.59,1.64-3.82,1.64-6.68s-.55-5.09-1.64-6.68c-1.06-1.55-2.72-2.33-4.98-2.33s-3.96.78-5.09,2.33c-1.13,1.56-1.7,3.8-1.7,6.73s.56,5.07,1.7,6.62c1.1,1.52,2.79,2.28,5.09,2.28s3.92-.76,4.98-2.28Z"/>
              <path class="cls-1" d="M1512.55,100.4v3.13h-14.58v-3.13c0-.88.44-1.43,1.33-1.64l.32-.05.79-.16,1.59-.26v-28.89l-1.59-.27c-.18-.04-.33-.07-.45-.11-.12-.04-.24-.05-.34-.05l-.32-.05c-.88-.21-1.33-.76-1.33-1.64v-3.13h10.55v34.14l1.59.26.79.16.32.05c.88.21,1.33.76,1.33,1.64Z"/>
              <path class="cls-1" d="M1534.07,94.89c0,1.27-.25,2.49-.74,3.66-.5,1.1-1.18,2.05-2.07,2.86-.95.85-2.09,1.47-3.39,1.86-1.27.46-2.83.69-4.67.69-1.59,0-3.15-.14-4.69-.42s-2.85-.64-3.95-1.06v-7.69h3.07c.64,0,1.04.34,1.22,1.01.07.39.19,1.43.37,3.13.95.28,2.39.42,4.29.42.74,0,1.41-.09,2.01-.26.6-.21,1.06-.46,1.38-.74.42-.35.69-.69.79-1.01.14-.39.21-.81.21-1.27,0-.64-.18-1.15-.53-1.54-.32-.35-.83-.71-1.54-1.06-.67-.32-1.38-.58-2.12-.79l-2.49-.79c-.57-.18-1.38-.51-2.44-1.01-.85-.39-1.57-.87-2.17-1.43-.64-.57-1.13-1.27-1.48-2.12-.39-.88-.58-1.91-.58-3.07s.21-2.19.64-3.18,1.08-1.87,1.96-2.65c.88-.78,1.96-1.38,3.23-1.8,1.38-.46,2.84-.69,4.4-.69,1.34,0,2.53.1,3.55.29,1.02.2,2.49.58,4.4,1.14h-.05v7.69h-3.02c-.64,0-1.04-.34-1.22-1.01-.11-.46-.23-1.45-.37-2.97-.81-.25-1.87-.37-3.18-.37s-2.28.26-3.02.79-1.11,1.25-1.11,2.17c0,.53.19,1.03.58,1.48.28.32.78.65,1.48,1.01.81.39,1.52.67,2.12.85.28.07,1.1.32,2.44.74.67.21,1.5.55,2.49,1.01.85.39,1.55.85,2.12,1.38.64.53,1.13,1.19,1.48,1.96.39.85.58,1.78.58,2.81Z"/>
              <path class="cls-1" d="M1536.94,109.99c-.32-.25-.48-.57-.48-.95,0-.28.18-.6.53-.95.71-.71,1.33-1.48,1.85-2.31.53-.83.87-1.62,1.01-2.36-.6,0-1.1-.09-1.48-.26-.74-.35-1.3-.86-1.67-1.51-.37-.65-.56-1.37-.56-2.15,0-1.06.35-1.92,1.06-2.57.71-.65,1.62-.98,2.76-.98,1.27,0,2.25.43,2.94,1.3.69.87,1.03,1.92,1.03,3.15,0,1.8-.56,3.71-1.67,5.72-1.11,2.01-2.5,3.66-4.16,4.93l-1.17-1.06Z"/>
              <path class="cls-1" d="M1591,92.24c0,1.62-.32,3.13-.95,4.51-.64,1.41-1.54,2.62-2.7,3.6-1.1.96-2.54,1.73-4.35,2.33-1.7.57-3.68.85-5.94.85h-18.5v-3.13c0-.88.44-1.43,1.33-1.64l.32-.05c.11,0,.22-.02.34-.05.12-.04.27-.07.45-.11l1.59-.26v-27.83l-1.59-.26c-.18-.04-.33-.07-.45-.11-.12-.03-.24-.05-.34-.05l-.32-.05c-.88-.21-1.33-.76-1.33-1.64v-3.13h17.23c2.54,0,4.68.23,6.41.69,1.84.5,3.3,1.18,4.4,2.07,1.13.88,1.96,1.96,2.49,3.23s.79,2.67.79,4.19c0,.95-.12,1.82-.37,2.6-.25.78-.67,1.56-1.27,2.33-.53.64-1.24,1.27-2.12,1.91-.78.53-1.78,1.03-3.02,1.48,5.26,1.17,7.9,4.01,7.9,8.53ZM1575.42,81.79c2.44,0,4.28-.44,5.51-1.32,1.24-.88,1.86-2.3,1.86-4.24s-.57-3.39-1.7-4.24c-1.1-.85-2.86-1.27-5.3-1.27h-6.1v11.08h5.72ZM1583.95,92.08c0-.74-.14-1.48-.42-2.23-.28-.71-.69-1.27-1.22-1.7-.53-.42-1.25-.78-2.17-1.06-.85-.25-1.93-.37-3.23-.37h-7.21v11.24h7.26c1.34,0,2.46-.16,3.34-.48.88-.32,1.59-.74,2.12-1.27.56-.56.95-1.18,1.17-1.85.25-.64.37-1.4.37-2.28Z"/>
              <path class="cls-1" d="M1618.36,100.34v3.13h-6.25c-.67,0-1.17-.09-1.48-.26-.35-.14-.62-.53-.79-1.17l-.58-1.91c-.71.67-1.38,1.22-2.01,1.64-.5.35-1.18.74-2.07,1.17-.64.28-1.38.51-2.23.69-.88.18-1.77.26-2.65.26-1.17,0-2.23-.16-3.18-.48-1.03-.35-1.85-.81-2.49-1.38-.74-.67-1.29-1.45-1.64-2.33-.39-.95-.58-2.01-.58-3.18,0-1.06.26-2.08.79-3.07.53-1.02,1.43-1.93,2.7-2.7,1.34-.85,3-1.52,4.98-2.01,2.08-.53,4.68-.8,7.79-.8v-1.59c0-1.77-.39-3.13-1.17-4.08-.74-.88-1.86-1.33-3.34-1.33-1.13,0-2.01.12-2.65.37-.81.32-1.43.6-1.86.85l-1.43.8c-.39.25-.87.37-1.43.37-.46,0-.85-.11-1.17-.32-.21-.14-.46-.42-.74-.85l-1.22-2.07c3.18-2.9,6.94-4.35,11.29-4.35,1.59,0,3.02.26,4.29.79,1.24.53,2.28,1.25,3.13,2.17.95,1.1,1.62,2.21,2.01,3.34.42,1.27.64,2.69.64,4.24v12.03l1.43.26.58.11c.88.21,1.33.76,1.33,1.64ZM1603.89,92.29c-1.31.28-2.35.6-3.13.95-.78.35-1.33.78-1.64,1.27-.32.46-.48,1.01-.48,1.64,0,1.2.33,2.03,1.01,2.49.71.49,1.59.74,2.65.74.67,0,1.29-.05,1.85-.16.6-.11,1.15-.3,1.64-.58.64-.35,1.11-.65,1.43-.9.49-.39.97-.81,1.43-1.27v-4.56c-1.98,0-3.57.12-4.77.37Z"/>
              <path class="cls-1" d="M1634.89,100.4v3.13h-14.58v-3.13c0-.88.44-1.43,1.33-1.64l.32-.05.79-.16,1.59-.26v-28.89l-1.59-.27c-.18-.04-.33-.07-.45-.11-.12-.04-.24-.05-.34-.05l-.32-.05c-.88-.21-1.33-.76-1.33-1.64v-3.13h10.55v34.14l1.59.26.79.16.32.05c.88.21,1.33.76,1.33,1.64Z"/>
              <path class="cls-1" d="M1655.62,76.92c1.7.67,3.11,1.59,4.24,2.76,1.13,1.17,2.01,2.63,2.65,4.4.64,1.73.95,3.66.95,5.78s-.32,4.06-.95,5.83c-.67,1.8-1.55,3.29-2.65,4.45-1.17,1.24-2.58,2.17-4.24,2.81-1.63.64-3.46.95-5.51.95s-3.91-.32-5.57-.95c-1.66-.64-3.07-1.57-4.24-2.81-1.24-1.27-2.16-2.76-2.76-4.45-.64-1.77-.95-3.71-.95-5.83s.32-4.05.95-5.78c.6-1.62,1.52-3.09,2.76-4.4,1.13-1.17,2.54-2.08,4.24-2.76,1.73-.67,3.59-1.01,5.57-1.01s3.78.34,5.51,1.01ZM1655.09,96.58c1.1-1.59,1.64-3.82,1.64-6.68s-.55-5.09-1.64-6.68c-1.06-1.55-2.72-2.33-4.98-2.33s-3.96.78-5.09,2.33c-1.13,1.56-1.7,3.8-1.7,6.73s.56,5.07,1.7,6.62c1.1,1.52,2.79,2.28,5.09,2.28s3.92-.76,4.98-2.28Z"/>
              <path class="cls-1" d="M1685.67,101.62c-.71.46-1.59.92-2.65,1.38-.78.28-1.71.51-2.81.69-.85.14-1.82.21-2.92.21-1.73,0-3.3-.3-4.72-.9-1.48-.64-2.77-1.55-3.87-2.76-1.17-1.27-2.05-2.74-2.65-4.4-.64-1.77-.95-3.76-.95-5.99,0-2.01.28-3.85.85-5.51.6-1.7,1.45-3.18,2.54-4.45,1.09-1.24,2.47-2.21,4.13-2.91,1.7-.71,3.59-1.06,5.67-1.06,2.26,0,5.12.65,8.59,1.96l-.05,8.38h-3.02c-.64,0-1.04-.34-1.22-1.01l-.42-3.82c-1.31-.35-2.47-.53-3.5-.53-1.17,0-2.17.21-3.02.64-.88.42-1.59,1.01-2.12,1.75-.64.88-1.08,1.84-1.32,2.86-.28,1.2-.42,2.44-.42,3.71,0,1.45.16,2.74.48,3.87.32,1.17.76,2.12,1.33,2.86.6.74,1.31,1.33,2.12,1.75.88.39,1.82.58,2.81.58,1.09,0,1.94-.12,2.54-.37.78-.32,1.33-.6,1.64-.85.18-.14.36-.27.56-.4.19-.12.4-.27.61-.45.28-.25.64-.37,1.06-.37.57,0,.97.19,1.22.58l1.86,2.39c-.85.95-1.63,1.68-2.33,2.17Z"/>
              <path class="cls-1" d="M1721.35,100.4v3.13h-10.55v-17.28c0-1.7-.39-2.99-1.17-3.87-.74-.92-1.89-1.38-3.45-1.38-1.1,0-2.16.27-3.18.79-1.06.57-2,1.26-2.81,2.07v14.42l1.59.26c.18.04.33.07.45.11s.24.05.34.05l.32.05c.88.21,1.33.76,1.33,1.64v3.13h-14.58v-3.13c0-.88.44-1.43,1.33-1.64l.32-.05c.11,0,.22-.02.34-.05.12-.04.27-.07.45-.11l1.59-.26v-28.89l-1.59-.27c-.18-.04-.33-.07-.45-.11-.12-.04-.24-.05-.34-.05l-.32-.05c-.88-.21-1.33-.76-1.33-1.64v-3.13h10.55v15.16c1.02-.96,2.19-1.77,3.5-2.44,1.27-.64,2.77-.95,4.51-.95,1.41,0,2.72.25,3.92.74,1.03.42,1.98,1.13,2.86,2.12.74.88,1.33,1.98,1.75,3.29.42,1.45.64,2.83.64,4.13v12.09l1.54.26.79.16.32.05c.88.21,1.33.76,1.33,1.64Z"/>
              <path class="cls-1" d="M1737.83,100.4v3.13h-14.58v-3.13c0-.88.44-1.43,1.33-1.64l.32-.05.79-.16,1.59-.26v-16.7l-1.59-.27c-.18-.04-.33-.07-.45-.11s-.24-.05-.34-.05l-.32-.05c-.88-.21-1.33-.76-1.33-1.64v-3.13h10.55v21.95l1.59.26c.18.04.33.07.45.11s.24.05.34.05l.32.05c.88.21,1.33.76,1.33,1.64ZM1734.44,69.97c-.21.5-.51.94-.9,1.33-.42.42-.87.72-1.33.9-.53.21-1.08.32-1.64.32s-1.11-.11-1.64-.32c-.42-.18-.85-.48-1.27-.9-.39-.39-.69-.83-.9-1.33-.21-.49-.32-1.02-.32-1.59s.11-1.11.32-1.64c.18-.46.48-.9.9-1.33.39-.39.81-.67,1.27-.85.64-.25,1.18-.37,1.64-.37s1.01.12,1.64.37c.53.21.97.5,1.33.85.42.42.72.87.9,1.33.25.6.37,1.15.37,1.64s-.12,1.03-.37,1.59Z"/>
              <path class="cls-1" d="M1759.35,94.89c0,1.27-.25,2.49-.74,3.66-.5,1.1-1.18,2.05-2.07,2.86-.95.85-2.09,1.47-3.39,1.86-1.27.46-2.83.69-4.67.69-1.59,0-3.15-.14-4.69-.42s-2.85-.64-3.95-1.06v-7.69h3.07c.64,0,1.04.34,1.22,1.01.07.39.19,1.43.37,3.13.95.28,2.39.42,4.29.42.74,0,1.41-.09,2.01-.26.6-.21,1.06-.46,1.38-.74.42-.35.69-.69.79-1.01.14-.39.21-.81.21-1.27,0-.64-.18-1.15-.53-1.54-.32-.35-.83-.71-1.54-1.06-.67-.32-1.38-.58-2.12-.79l-2.49-.79c-.57-.18-1.38-.51-2.44-1.01-.85-.39-1.57-.87-2.17-1.43-.64-.57-1.13-1.27-1.48-2.12-.39-.88-.58-1.91-.58-3.07s.21-2.19.64-3.18,1.08-1.87,1.96-2.65c.88-.78,1.96-1.38,3.23-1.8,1.38-.46,2.84-.69,4.4-.69,1.34,0,2.53.1,3.55.29,1.02.2,2.49.58,4.4,1.14h-.05v7.69h-3.02c-.64,0-1.04-.34-1.22-1.01-.11-.46-.23-1.45-.37-2.97-.81-.25-1.87-.37-3.18-.37s-2.28.26-3.02.79-1.11,1.25-1.11,2.17c0,.53.19,1.03.58,1.48.28.32.78.65,1.48,1.01.81.39,1.52.67,2.12.85.28.07,1.1.32,2.44.74.67.21,1.5.55,2.49,1.01.85.39,1.55.85,2.12,1.38.64.53,1.13,1.19,1.48,1.96.39.85.58,1.78.58,2.81Z"/>
              <path class="cls-1" d="M1766.67,101.93c-1.27-1.34-1.91-3.18-1.91-5.51v-15.16h-2.76c-.28,0-.58-.12-.9-.37-.28-.21-.42-.55-.42-1.01v-2.65l4.4-.69,1.38-7.42c.03-.32.19-.58.48-.79.28-.21.62-.32,1.01-.32h3.39v8.59h7.16v4.66h-7.16v14.74c0,.81.21,1.47.64,1.96.42.46.99.69,1.7.69.49,0,.83-.04,1.01-.11l.69-.32.58-.32c.11-.07.25-.11.42-.11.28,0,.46.04.53.11l.37.42,1.96,3.18c-.92.74-2.01,1.34-3.29,1.8-1.2.42-2.47.64-3.82.64-2.37,0-4.19-.67-5.46-2.01Z"/>
              <path class="cls-1" d="M1806.53,100.34v3.13h-6.25c-.67,0-1.17-.09-1.48-.26-.35-.14-.62-.53-.79-1.17l-.58-1.91c-.71.67-1.38,1.22-2.01,1.64-.5.35-1.18.74-2.07,1.17-.64.28-1.38.51-2.23.69-.88.18-1.77.26-2.65.26-1.17,0-2.23-.16-3.18-.48-1.03-.35-1.85-.81-2.49-1.38-.74-.67-1.29-1.45-1.64-2.33-.39-.95-.58-2.01-.58-3.18,0-1.06.26-2.08.79-3.07.53-1.02,1.43-1.93,2.7-2.7,1.34-.85,3-1.52,4.98-2.01,2.08-.53,4.68-.8,7.79-.8v-1.59c0-1.77-.39-3.13-1.17-4.08-.74-.88-1.86-1.33-3.34-1.33-1.13,0-2.01.12-2.65.37-.81.32-1.43.6-1.86.85l-1.43.8c-.39.25-.87.37-1.43.37-.46,0-.85-.11-1.17-.32-.21-.14-.46-.42-.74-.85l-1.22-2.07c3.18-2.9,6.94-4.35,11.29-4.35,1.59,0,3.02.26,4.29.79,1.24.53,2.28,1.25,3.13,2.17.95,1.1,1.62,2.21,2.01,3.34.42,1.27.64,2.69.64,4.24v12.03l1.43.26.58.11c.88.21,1.33.76,1.33,1.64ZM1792.06,92.29c-1.31.28-2.35.6-3.13.95-.78.35-1.33.78-1.64,1.27-.32.46-.48,1.01-.48,1.64,0,1.2.33,2.03,1.01,2.49.71.49,1.59.74,2.65.74.67,0,1.29-.05,1.85-.16.6-.11,1.15-.3,1.64-.58.64-.35,1.11-.65,1.43-.9.49-.39.97-.81,1.43-1.27v-4.56c-1.98,0-3.57.12-4.77.37Z"/>
              <path class="cls-1" d="M1840.24,100.4v3.13h-10.55v-17.28c0-1.62-.39-2.92-1.17-3.87-.74-.92-1.89-1.38-3.45-1.38-1.13,0-2.19.27-3.18.79-1.06.57-2,1.26-2.81,2.07v14.42l1.54.26.79.16.32.05c.88.21,1.33.76,1.33,1.64v3.13h-14.52v-3.13c0-.88.44-1.43,1.33-1.64l.32-.05.79-.16,1.54-.26v-16.7l-1.54-.27c-.18-.04-.33-.07-.45-.11-.12-.04-.24-.05-.34-.05l-.32-.05c-.88-.21-1.33-.76-1.33-1.64v-3.13h8c.81,0,1.36.41,1.64,1.22l.48,2.12c.49-.57,1.06-1.08,1.7-1.54.49-.39,1.15-.78,1.96-1.17.92-.42,1.64-.69,2.17-.8.88-.18,1.73-.26,2.54-.26,1.55,0,2.88.25,3.98.74,1.02.42,1.98,1.13,2.86,2.12.74.88,1.33,1.98,1.75,3.29.39,1.17.58,2.56.58,4.19v12.03l1.59.26c.18.04.33.07.45.11.12.04.24.05.34.05l.32.05c.88.21,1.33.76,1.33,1.64Z"/>
            </g>
            <g>
              <polygon class="cls-1" points="1907.48 80.54 2296.29 86.22 1907.48 91.91 1907.48 80.54"/>
              <circle class="cls-1" cx="1908.16" cy="86.22" r="13.54"/>
            </g>
            <g>
              <polygon class="cls-1" points="684.64 91.91 295.83 86.22 684.64 80.54 684.64 91.91"/>
              <circle class="cls-1" cx="683.97" cy="86.22" r="13.54"/>
            </g>
          </g>
        </g>
      </g>
    </g>
  </g>
</svg>